<svg width="336" height="100" viewBox="0 0 336 100" fill="none" xmlns="http://www.w3.org/2000/svg">
<g clip-path="url(#clip0_992_1527)">
<path d="M44.062 33.8357C44.1868 32.146 44.7156 30.5111 45.6041 29.0686C45.8389 28.6719 46.0994 28.3221 46.3482 27.9255C48.5782 28.4099 50.7371 29.1774 52.7724 30.2093C52.0253 31.1831 51.5303 32.3264 51.3312 33.5376C51.1304 34.8614 51.2843 36.2148 51.7772 37.4597C52.3053 38.6692 53.0846 39.7525 54.0634 40.6378C55.0008 41.4943 56.055 42.2135 57.1945 42.7737C59.4017 43.8548 61.7914 44.5139 64.2407 44.7172C64.736 44.7665 65.2336 44.7665 65.7312 44.7665C65.8297 45.0645 65.98 45.4119 66.0785 45.7593C65.1549 45.8761 64.2256 45.9426 63.2948 45.9588C59.8163 46.0574 56.2885 45.6114 53.0588 44.4684C49.8267 43.269 46.8458 41.3325 45.2615 38.5018C44.3758 37.1135 43.9557 35.479 44.062 33.8357ZM61.9006 57.521C56.2368 57.2229 50.5708 56.0329 45.4023 53.5989C42.7703 52.4078 40.3261 50.839 38.1472 48.9421C35.962 46.9939 34.0725 44.6608 32.9294 41.9287C31.7419 39.1982 31.3458 36.1889 31.7863 33.2442C32.0484 31.5738 32.5504 29.95 33.2768 28.4231C30.1472 29.3051 27.2131 30.7721 24.6298 32.7466C24.5805 33.1456 24.5312 33.5916 24.4819 33.9882C24.2335 37.227 24.9237 40.4687 26.47 43.3253C27.9604 46.1513 30.2395 48.6322 32.8214 50.6203C35.4695 52.6009 38.3796 54.2044 41.4684 55.3851C47.6814 57.8191 54.4389 58.8119 61.1495 58.7627C63.0921 58.7463 65.0327 58.6304 66.9634 58.4153C67.0127 58.1172 67.0644 57.8191 67.1137 57.4764C65.3801 57.6164 63.6386 57.6313 61.9029 57.521H61.9006ZM40.4333 46.1513C42.4418 47.6701 44.6491 48.906 46.9937 49.8246C51.7162 51.6624 56.8847 52.4558 62.0156 52.3572C63.7765 52.3425 65.5351 52.2265 67.2826 52.0098C67.294 51.8756 67.2772 51.7405 67.2334 51.6132C67.2334 51.4629 67.1841 51.3151 67.1841 51.1648C65.8415 51.2149 64.4997 51.2149 63.1587 51.1648C59.0812 50.9541 55.0799 49.9771 51.3641 48.2849C49.5045 47.4045 47.7684 46.2839 46.2003 44.9519C44.6011 43.5532 43.2993 41.8475 42.3721 39.936C41.458 37.968 41.1469 35.7736 41.4778 33.6291C41.8001 31.5798 42.6152 29.6394 43.8532 27.9748C43.9408 27.8487 44.0415 27.7323 44.1536 27.6274C42.2321 27.337 40.2834 27.2709 38.3467 27.4302C37.551 27.4795 36.8069 27.6274 36.0605 27.726C35.1021 29.529 34.5109 31.5044 34.3213 33.5376C34.0789 35.9707 34.5633 38.4211 35.7132 40.5791C36.7576 42.7737 38.4547 44.6608 40.4333 46.1513ZM61.0603 63.9898C53.8028 63.6917 46.5477 62.2013 39.8864 59.2227C36.5076 57.744 33.3609 55.7833 30.5447 53.4017C27.7116 51.017 25.2753 48.137 23.6862 44.7172C22.3012 41.7543 21.6568 38.4993 21.8085 35.2322C19.0399 38.0316 16.9268 41.4103 15.6213 45.1248C14.3158 48.8392 13.8505 52.797 14.2588 56.713C14.6671 60.6289 15.939 64.4056 17.9827 67.7708C20.0265 71.136 22.7912 74.006 26.0777 76.174C29.3643 78.3421 33.0908 79.7541 36.9887 80.3084C40.8867 80.8628 44.8591 80.5456 48.6198 79.3797C52.3804 78.2139 55.8356 76.2284 58.7365 73.5664C61.6374 70.9043 63.9117 67.632 65.3955 63.9851C63.9465 64.0305 62.5014 64.0281 61.0603 63.9781V63.9898ZM54.5492 31.2021C54.109 31.9931 53.8674 32.8791 53.8451 33.784C53.8409 34.5994 54.0867 35.3964 54.5492 36.0678C55.4435 37.4574 57.0349 38.4009 58.7741 38.9478C60.1917 39.3742 61.6668 39.5785 63.1469 39.5534C60.9145 36.1841 57.982 33.3356 54.5492 31.2021Z" fill="#1345AE"/>
<path d="M188.055 63.8937C186.269 62.9689 184.785 61.5536 183.776 59.8143C182.734 58.0534 182.201 56.0387 182.234 53.9933C182.201 51.9478 182.734 49.9331 183.776 48.1723C184.812 46.4556 186.29 45.0479 188.055 44.0952C189.952 43.0849 192.074 42.5721 194.223 42.6048C196.357 42.5667 198.465 43.0809 200.342 44.0976C202.116 45.0364 203.596 46.4474 204.619 48.1746C205.66 49.9376 206.21 51.9479 206.21 53.9956C206.21 56.0434 205.66 58.0536 204.619 59.8166C203.582 61.5333 202.106 62.9417 200.342 63.896C198.463 64.907 196.357 65.4209 194.223 65.3888C192.079 65.3759 189.967 64.864 188.055 63.8937ZM197.704 60.1124C198.728 59.521 199.571 58.6616 200.143 57.6267C200.73 56.5065 201.037 55.2605 201.037 53.9956C201.037 52.7307 200.73 51.4847 200.143 50.3645C199.571 49.3292 198.728 48.4692 197.704 47.8765C196.619 47.2896 195.406 46.9823 194.173 46.9823C192.939 46.9823 191.726 47.2896 190.641 47.8765C189.619 48.4696 188.777 49.3286 188.205 50.3622C187.617 51.4827 187.31 52.7291 187.31 53.9945C187.31 55.2598 187.617 56.5062 188.205 57.6267C188.777 58.662 189.62 59.522 190.644 60.1147C191.719 60.7164 192.933 61.0256 194.164 61.0113C195.403 61.0345 196.626 60.724 197.704 60.1124ZM96.5712 46.7335C95.8248 45.5388 94.731 44.6445 93.2851 43.9967C91.8393 43.3488 90.1493 43.0578 88.2105 43.0578H78.7139V64.9452H83.7885V58.8684H88.2152C90.154 58.8684 91.8463 58.5703 93.2898 57.9295C94.6304 57.3612 95.7735 56.41 96.5759 55.195C97.3474 53.9225 97.7444 52.4581 97.7213 50.9701C97.7531 49.476 97.3538 48.0043 96.5712 46.7311V46.7335ZM92.642 51.0124C92.642 52.2047 92.2453 53.1506 91.4473 53.7961C90.6492 54.4416 89.4592 54.7913 87.9664 54.7913H83.8378V47.1794H87.9664C89.5085 47.1794 90.6516 47.5268 91.4473 48.1723C92.243 48.8178 92.642 49.766 92.642 51.01V51.0124ZM105.526 43.0508H100.503V64.9874H105.277L115.724 50.7096V64.9874H120.749V43.0508H115.973L105.526 57.3263V43.0508ZM140.149 60.2626H129.95L128.012 64.9874H122.789L132.589 43.0508H137.612L147.413 64.9874H142.09L140.149 60.2626ZM138.506 56.432L135.025 48.0244L131.544 56.432H138.506ZM177.455 64.9874V43.0508H172.385V51.7048H162.435V43.0508H157.361V64.9874H162.435V55.9837H172.385V64.9874H177.455ZM230.236 58.8191C230.236 57.4765 229.888 56.3804 229.191 55.4861C228.395 54.5522 227.338 53.8765 226.156 53.545C227.096 53.1443 227.893 52.4696 228.443 51.6092C228.993 50.7487 229.271 49.7424 229.241 48.7215C229.241 46.9306 228.536 45.5364 227.102 44.5412C225.668 43.546 223.673 43.0508 221.136 43.0508H210.937V64.9874H221.734C224.471 64.9874 226.56 64.4406 228.053 63.3444C229.492 62.2999 230.238 60.7602 230.238 58.8191H230.236ZM220.685 52.1038H215.96V46.7311H220.687C221.781 46.7311 222.577 46.9799 223.175 47.4353C223.453 47.6845 223.673 47.9917 223.819 48.3353C223.965 48.6788 224.034 49.0503 224.02 49.4233C224.02 50.32 223.722 50.9654 223.175 51.4137C222.629 51.862 221.781 52.1038 220.687 52.1038H220.685ZM221.53 55.6246C223.917 55.6246 225.112 56.5212 225.112 58.3614C225.112 60.2532 223.918 61.1983 221.53 61.1968H215.96V55.634L221.53 55.6246ZM239.34 63.8843C237.555 62.9595 236.07 61.5443 235.061 59.8049C234.02 58.0441 233.486 56.0294 233.519 53.9839C233.486 51.9384 234.02 49.9237 235.061 48.1629C236.098 46.4457 237.575 45.0378 239.34 44.0859C241.238 43.0786 243.36 42.5691 245.509 42.6048C247.643 42.5664 249.751 43.0806 251.628 44.0976C253.403 45.0363 254.883 46.4473 255.907 48.1746C256.948 49.9376 257.498 51.9479 257.498 53.9956C257.498 56.0434 256.948 58.0536 255.907 59.8166C254.87 61.5339 253.393 62.9425 251.628 63.896C249.749 64.907 247.642 65.4209 245.509 65.3888C243.366 65.3697 241.256 64.8581 239.343 63.8937L239.34 63.8843ZM248.997 60.1124C250.02 59.5197 250.863 58.6596 251.435 57.6244C252.023 56.5042 252.33 55.2582 252.33 53.9933C252.33 52.7284 252.023 51.4824 251.435 50.3622C250.863 49.3275 250.02 48.4676 248.997 47.8742C247.912 47.2873 246.698 46.9799 245.464 46.9799C244.231 46.9799 243.017 47.2873 241.932 47.8742C240.909 48.4676 240.067 49.3275 239.495 50.3622C238.908 51.4824 238.601 52.7284 238.601 53.9933C238.601 55.2582 238.908 56.5042 239.495 57.6244C240.066 58.6595 240.909 59.5196 241.932 60.1124C243.007 60.7141 244.221 61.0232 245.452 61.009C246.693 61.0337 247.917 60.724 248.997 60.1124ZM262.23 59.8636C263.282 61.5551 264.756 62.944 266.507 63.8937C268.347 64.8889 270.337 65.3348 272.626 65.3348C274.396 65.35 276.152 65.0117 277.789 64.3396C279.299 63.6858 280.629 62.6797 281.669 61.4057L278.383 58.4201C276.89 60.1617 275.05 61.0019 272.86 61.0019C271.593 61.0246 270.341 60.7155 269.229 60.1053C268.191 59.5146 267.332 58.6551 266.741 57.6173C266.154 56.4971 265.847 55.2511 265.847 53.9862C265.847 52.7214 266.154 51.4754 266.741 50.3552C267.333 49.3178 268.192 48.4585 269.229 47.8672C270.341 47.2578 271.593 46.9495 272.86 46.9729C275.05 46.9729 276.89 47.8672 278.383 49.5548L281.669 46.5692C280.626 45.3104 279.295 44.321 277.789 43.6845C276.151 43.0135 274.396 42.6752 272.626 42.6893C270.337 42.6893 268.297 43.1376 266.507 44.1328C264.725 45.0383 263.241 46.4362 262.23 48.1605C261.186 49.8529 260.688 51.794 260.688 53.9815C260.688 56.1691 261.181 58.1713 262.225 59.8636H262.23ZM302.275 47.1888H295.259V64.9968H290.236V47.1794H283.265V43.0508H302.278L302.275 47.1888ZM311.279 43.0601H306.254V64.9968H311.03L321.475 50.719V64.9968H326.5V43.0508H321.724L311.279 57.3263V43.0601Z" fill="#003057"/>
</g>
<defs>
<clipPath id="clip0_992_1527">
<rect width="316" height="66.8656" fill="white" transform="translate(10.5 17)"/>
</clipPath>
</defs>
</svg>
