<svg width="16" height="16" viewBox="0 0 16 16" fill="none" xmlns="http://www.w3.org/2000/svg">
<path fill-rule="evenodd" clip-rule="evenodd" d="M14.1179 4.9918L15.6472 8.12295H12.0769V4.02986H12.5775C13.2326 4.02986 13.8304 4.40318 14.1179 4.9918ZM9.32395 2.85715C9.85741 2.85715 10.334 3.10081 10.6484 3.48292V8.83723C10.6484 9.23172 10.9682 9.55152 11.3627 9.55152H15.7672V11.9303C15.7672 12.8771 14.9997 13.6446 14.0529 13.6446H13.8626C13.8633 13.6676 13.8637 13.6908 13.8637 13.714C13.8637 14.9107 12.8936 15.8808 11.6969 15.8808C10.5485 15.8808 9.60882 14.9875 9.53477 13.8579H6.6168C6.54275 14.9875 5.60304 15.8808 4.45469 15.8808C3.30634 15.8808 2.36663 14.9875 2.29258 13.8579H1.94524C0.998469 13.8579 0.230957 13.0903 0.230957 12.1436V4.57143C0.230957 3.62466 0.998468 2.85715 1.94524 2.85715H9.32395ZM5.63498 5.42858C6.02946 5.42858 6.34926 5.74837 6.34926 6.14286V7.28572H7.49212C7.88661 7.28572 8.2064 7.60552 8.2064 8C8.2064 8.39449 7.88661 8.71429 7.49212 8.71429H6.34926V9.85715C6.34926 10.2516 6.02946 10.5714 5.63498 10.5714C5.24049 10.5714 4.92069 10.2516 4.92069 9.85715V8.71429H3.77783C3.38334 8.71429 3.06355 8.39449 3.06355 8C3.06355 7.60552 3.38334 7.28572 3.77783 7.28572H4.92069V6.14286C4.92069 5.74837 5.24049 5.42858 5.63498 5.42858Z" fill="#D94C42"/>
</svg>
