<svg width="17" height="16" viewBox="0 0 17 16" fill="none" xmlns="http://www.w3.org/2000/svg">
<path fill-rule="evenodd" clip-rule="evenodd" d="M5.64286 1.14286C5.64286 0.511675 5.13118 0 4.5 0C3.86882 0 3.35714 0.511675 3.35714 1.14286V2.28571H2.21429C1.26751 2.28571 0.5 3.05323 0.5 4V14.2857C0.5 15.2325 1.26751 16 2.21429 16H14.7857C15.7325 16 16.5 15.2325 16.5 14.2857V4C16.5 3.05323 15.7325 2.28571 14.7857 2.28571H13.643V1.14286C13.643 0.511675 13.1313 0 12.5001 0C11.869 0 11.3573 0.511675 11.3573 1.14286V2.28571H5.64286V1.14286ZM8.48769 5.85725C8.59444 5.8552 8.69963 5.88305 8.79138 5.93766C8.88313 5.99227 8.95776 6.07147 9.00685 6.16628L9.00897 6.17046L9.85966 7.88174L9.86303 7.88244L11.7476 8.16857C11.854 8.18309 11.9542 8.22729 12.0368 8.29613C12.1202 8.36574 12.1821 8.45765 12.2152 8.56114C12.2483 8.66463 12.2513 8.7754 12.2238 8.88052C12.1964 8.98504 12.14 9.07966 12.0611 9.15345L10.7349 10.4138C10.7447 10.4368 10.7515 10.4611 10.7551 10.486L11.0207 12.3554C11.0407 12.4605 11.0308 12.5691 10.9921 12.6689C10.9521 12.7722 10.883 12.8616 10.7932 12.9263C10.7034 12.9911 10.5967 13.0284 10.4861 13.0337C10.3778 13.0389 10.2703 13.0133 10.1761 12.9598L8.51228 12.079C8.50713 12.0772 8.50171 12.0763 8.49625 12.0763C8.49079 12.0763 8.48538 12.0772 8.48022 12.079L6.81639 12.9598C6.72218 13.0133 6.61469 13.0389 6.5064 13.0337C6.39581 13.0284 6.28914 12.9911 6.19932 12.9263C6.1095 12.8616 6.0404 12.7722 6.00039 12.6689C5.96119 12.5677 5.95157 12.4576 5.97259 12.3512L6.28795 10.4787C6.28965 10.4686 6.29189 10.4587 6.29466 10.4488L4.92967 9.14191L4.92393 9.13626C4.85013 9.0615 4.79833 8.96787 4.77422 8.86563C4.7501 8.76339 4.75459 8.65649 4.78719 8.55663C4.8198 8.45677 4.87926 8.36782 4.95907 8.29951C5.03888 8.23121 5.13594 8.18619 5.23964 8.16939L5.24389 8.16873L7.1325 7.89187L7.13387 7.88953L7.98237 6.18268C8.02785 6.08749 8.09877 6.00671 8.18731 5.94928C8.27689 5.89118 8.38094 5.8593 8.48769 5.85725Z" fill="#006ADC"/>
</svg>
