<svg width="16" height="17" viewBox="0 0 16 17" fill="none" xmlns="http://www.w3.org/2000/svg">
<path fill-rule="evenodd" clip-rule="evenodd" d="M5.14286 1.64286C5.14286 1.01167 4.63118 0.5 4 0.5C3.36882 0.5 2.85714 1.01167 2.85714 1.64286V2.78571H1.71429C0.767512 2.78571 0 3.55323 0 4.5V6.21428H16V4.5C16 3.55323 15.2325 2.78571 14.2857 2.78571H13.143V1.64286C13.143 1.01167 12.6313 0.5 12.0001 0.5C11.3689 0.5 10.8572 1.01167 10.8572 1.64286V2.78571H5.14286V1.64286ZM16 7.64286H0V14.7857C0 15.7325 0.767512 16.5 1.71429 16.5H14.2857C15.2325 16.5 16 15.7325 16 14.7857V7.64286Z" fill="#006ADC"/>
</svg>
