<svg width="16" height="16" viewBox="0 0 16 16" fill="none" xmlns="http://www.w3.org/2000/svg">
<path fill-rule="evenodd" clip-rule="evenodd" d="M5.14286 1.14286C5.14286 0.511675 4.63118 0 4 0C3.36882 0 2.85714 0.511675 2.85714 1.14286V2.28571H1.71429C0.767512 2.28571 0 3.05323 0 4V5.71428H16V4C16 3.05323 15.2325 2.28571 14.2857 2.28571H13.143V1.14286C13.143 0.511675 12.6313 0 12.0001 0C11.3689 0 10.8572 0.511675 10.8572 1.14286V2.28571H5.14286V1.14286ZM16 7.14286H0V14.2857C0 15.2325 0.767512 16 1.71429 16H14.2857C15.2325 16 16 15.2325 16 14.2857V7.14286Z" fill="#4E4E4E"/>
</svg>
