<svg width="64" height="64" viewBox="0 0 64 64" fill="none" xmlns="http://www.w3.org/2000/svg">
<circle opacity="0.12" cx="32" cy="32" r="32" fill="#D94C42"/>
<path fill-rule="evenodd" clip-rule="evenodd" d="M29.0289 19.2207C30.7896 17.7884 33.3139 17.7884 35.0746 19.2207L35.3927 19.4795L35.7976 19.4145C38.0386 19.0544 40.2247 20.3165 41.0334 22.4373L41.1795 22.8205L41.5627 22.9666C43.6835 23.7753 44.9456 25.9614 44.5855 28.2024L44.5205 28.6073L44.7793 28.9254L44.0975 29.48L44.7793 28.9254C46.2116 30.6861 46.2116 33.2104 44.7793 34.9711L44.5205 35.2892L44.5855 35.6941C44.9456 37.9351 43.6835 40.1212 41.5627 40.9299L41.1795 41.076L41.0334 41.4591C40.2247 43.58 38.0386 44.8421 35.7976 44.482L35.3927 44.417L35.0746 44.6757C33.3139 46.1081 30.7896 46.1081 29.0289 44.6758L29.6599 43.9L29.0289 44.6757L28.7108 44.417L28.3059 44.482C26.0649 44.8421 23.8788 43.58 23.0701 41.4591L22.924 41.076L22.5409 40.9299C20.42 40.1212 19.1579 37.9351 19.518 35.6941L19.583 35.2892L19.3243 34.9711C17.8919 33.2104 17.8919 30.6861 19.3243 28.9254L19.583 28.6073L19.518 28.2024C19.1579 25.9614 20.42 23.7753 22.5409 22.9666L22.924 22.8205L23.0701 22.4373C23.8788 20.3165 26.0649 19.0544 28.3059 19.4145L28.7108 19.4795L29.0289 19.2207ZM37.9356 26.0644C37.4475 25.5762 36.656 25.5762 36.1679 26.0644L26.1679 36.0644C25.6797 36.5525 25.6797 37.344 26.1679 37.8321C26.656 38.3203 27.4475 38.3203 27.9356 37.8321L37.9356 27.8321C38.4238 27.344 38.4238 26.5525 37.9356 26.0644ZM28.0517 25.9479C26.9472 25.9479 26.0517 26.8433 26.0517 27.9479C26.0517 29.0525 26.9472 29.9479 28.0517 29.9479C29.1563 29.9479 30.0517 29.0525 30.0517 27.9479C30.0517 26.8433 29.1563 25.9479 28.0517 25.9479ZM36.0518 33.9482C34.9472 33.9482 34.0518 34.8437 34.0518 35.9482C34.0518 37.0528 34.9472 37.9482 36.0518 37.9482C37.1563 37.9482 38.0518 37.0528 38.0518 35.9482C38.0518 34.8437 37.1563 33.9482 36.0518 33.9482Z" fill="#D94C42"/>
</svg>
