<svg width="32" height="32" viewBox="0 0 32 32" fill="none" xmlns="http://www.w3.org/2000/svg">
<path fill-rule="evenodd" clip-rule="evenodd" d="M8 0C3.58172 0 0 3.58172 0 8V24C0 28.4183 3.58172 32 8 32H24C28.4183 32 32 28.4183 32 24V8C32 3.58172 28.4183 0 24 0H8ZM24.006 11.9281C24.5975 11.1888 24.4776 10.11 23.7383 9.51855C22.999 8.9271 21.9202 9.04697 21.3288 9.78627L13.2239 19.9174L9.9817 17.4858C9.22428 16.9177 8.14976 17.0712 7.5817 17.8286C7.01363 18.586 7.16713 19.6605 7.92455 20.2286L12.496 23.6572C13.2367 24.2127 14.2848 24.0797 14.8632 23.3567L24.006 11.9281Z" fill="#34C759"/>
</svg>
