<svg width="20" height="21" viewBox="0 0 20 21" fill="none" xmlns="http://www.w3.org/2000/svg">
<g clip-path="url(#clip0_276_3619)">
<path fill-rule="evenodd" clip-rule="evenodd" d="M4.16536 2.1665C3.70513 2.1665 3.33203 2.5396 3.33203 2.99984V16.3332C3.33203 17.7139 4.45132 18.8332 5.83203 18.8332H14.1654C15.5461 18.8332 16.6654 17.7139 16.6654 16.3332V7.1665C16.6654 6.94549 16.5776 6.73353 16.4213 6.57725L12.2546 2.41058C12.0983 2.2543 11.8864 2.1665 11.6654 2.1665H4.16536ZM11.6654 4.17835L14.6535 7.1665H11.6654V4.17835ZM6.66536 9.24986C6.66536 8.5595 7.22501 7.99986 7.91536 7.99986H7.9237C8.61405 7.99986 9.1737 8.5595 9.1737 9.24986V9.25819C9.1737 9.94855 8.61405 10.5082 7.9237 10.5082H7.91536C7.22501 10.5082 6.66536 9.94855 6.66536 9.25819V9.24986ZM10.588 11.5773C10.2625 11.2518 9.73488 11.2518 9.40944 11.5773L6.07611 14.9106C5.75067 15.236 5.75067 15.7637 6.07611 16.0891C6.40155 16.4145 6.92918 16.4145 7.25462 16.0891L9.9987 13.345L12.7428 16.0891C13.0682 16.4145 13.5958 16.4145 13.9213 16.0891C14.2467 15.7637 14.2467 15.236 13.9213 14.9106L10.588 11.5773Z" fill="#006ADC"/>
</g>
<defs>
<clipPath id="clip0_276_3619">
<rect width="20" height="20" fill="white" transform="translate(0 0.5)"/>
</clipPath>
</defs>
</svg>
