<svg width="24" height="24" viewBox="0 0 24 24" fill="none" xmlns="http://www.w3.org/2000/svg">
<path fill-rule="evenodd" clip-rule="evenodd" d="M8.0293 4.1527C8.0293 1.96077 9.8062 0.183868 11.9981 0.183868C14.19 0.183868 15.967 1.96077 15.967 4.1527C15.967 6.34462 14.19 8.12152 11.9981 8.12152C9.8062 8.12152 8.0293 6.34462 8.0293 4.1527ZM4.1917 10.6533C4.99947 9.88665 6.07065 9.45924 7.1843 9.45924C8.29796 9.45924 9.36914 9.88664 10.1769 10.6533L10.1929 10.6689L11.9978 12.4738L13.8027 10.6689L13.8187 10.6533C14.6265 9.88665 15.6977 9.45924 16.8113 9.45924C17.925 9.45924 18.9962 9.88664 19.8039 10.6533L19.8041 10.6535C20.2052 11.0344 20.5246 11.4929 20.7429 12.0012C20.9612 12.5095 21.0737 13.0569 21.0737 13.6101C21.0737 14.1633 20.9612 14.7107 20.7429 15.219C20.5253 15.7256 20.2073 16.1828 19.808 16.563L12.5952 23.5736C12.2626 23.8969 11.733 23.8969 11.4004 23.5736L4.1877 16.5631C3.78837 16.1829 3.47029 15.7256 3.25271 15.219C3.03444 14.7107 2.92188 14.1633 2.92188 13.6101C2.92188 13.0569 3.03444 12.5095 3.25271 12.0012C3.47098 11.4929 3.7904 11.0344 4.19153 10.6535L4.1917 10.6533Z" fill="#006ADC"/>
</svg>
