<svg width="20" height="21" viewBox="0 0 20 21" fill="none" xmlns="http://www.w3.org/2000/svg">
<g clip-path="url(#clip0_321_2579)">
<path fill-rule="evenodd" clip-rule="evenodd" d="M3.3335 3.00002C3.3335 2.53978 3.70659 2.16669 4.16683 2.16669H15.8335C16.2937 2.16669 16.6668 2.53978 16.6668 3.00002V18C16.6668 18.3255 16.4774 18.6211 16.1817 18.7571C15.886 18.8931 15.5383 18.8445 15.2912 18.6327L14.4314 17.8958C14.1193 17.6283 13.6588 17.6283 13.3467 17.8958L12.4869 18.6327C12.1749 18.9002 11.7144 18.9002 11.4023 18.6327L10.5425 17.8958C10.2304 17.6283 9.76991 17.6283 9.45784 17.8958L8.59804 18.6327C8.28597 18.9002 7.82547 18.9002 7.51339 18.6327L6.6536 17.8958C6.34153 17.6283 5.88102 17.6283 5.56895 17.8958L4.70916 18.6327C4.46206 18.8445 4.11428 18.8931 3.81862 18.7571C3.52295 18.6211 3.3335 18.3255 3.3335 18V3.00002ZM7.50018 5.5C7.03995 5.5 6.66685 5.8731 6.66685 6.33333C6.66685 6.79357 7.03995 7.16667 7.50018 7.16667H12.5002C12.9604 7.16667 13.3335 6.79357 13.3335 6.33333C13.3335 5.8731 12.9604 5.5 12.5002 5.5H7.50018ZM7.50018 8.83333C7.03995 8.83333 6.66685 9.20643 6.66685 9.66667C6.66685 10.1269 7.03995 10.5 7.50018 10.5H12.5002C12.9604 10.5 13.3335 10.1269 13.3335 9.66667C13.3335 9.20643 12.9604 8.83333 12.5002 8.83333H7.50018ZM8.33352 13C8.33352 12.5398 8.70661 12.1667 9.16685 12.1667H12.5002C12.9604 12.1667 13.3335 12.5398 13.3335 13C13.3335 13.4602 12.9604 13.8333 12.5002 13.8333H9.16685C8.70661 13.8333 8.33352 13.4602 8.33352 13Z" fill="#006ADC"/>
</g>
<defs>
<clipPath id="clip0_321_2579">
<rect width="20" height="20" fill="white" transform="translate(0 0.5)"/>
</clipPath>
</defs>
</svg>
