<svg width="18" height="18" viewBox="0 0 18 18" fill="none" xmlns="http://www.w3.org/2000/svg">
<path d="M12.214 13.4997V16.0711C12.214 16.4121 12.0785 16.7392 11.8374 16.9803C11.5963 17.2214 11.2693 17.3569 10.9283 17.3569H1.92829C1.5873 17.3569 1.26027 17.2214 1.01916 16.9803C0.778037 16.7392 0.642578 16.4121 0.642578 16.0711V1.92829C0.642578 1.5873 0.778037 1.26027 1.01916 1.01916C1.26027 0.778037 1.5873 0.642578 1.92829 0.642578H10.9283C11.2693 0.642578 11.5963 0.778037 11.8374 1.01916C12.0785 1.26027 12.214 1.5873 12.214 1.92829V4.49972" stroke="#D94C42" stroke-width="1.28571" stroke-linecap="round" stroke-linejoin="round"/>
<path d="M8.35742 9H17.3574" stroke="#D94C42" stroke-width="1.28571" stroke-linecap="round" stroke-linejoin="round"/>
<path d="M14.7852 6.42871L17.3566 9.00014L14.7852 11.5716" stroke="#D94C42" stroke-width="1.28571" stroke-linecap="round" stroke-linejoin="round"/>
</svg>
