<svg width="172" height="140" viewBox="0 0 172 140" fill="none" xmlns="http://www.w3.org/2000/svg">
<path fill-rule="evenodd" clip-rule="evenodd" d="M72.436 10.7158C78.7779 12.5845 83.553 15.3147 86.7612 18.9066C63.6706 -17.1879 3.33017 22.0772 46.0154 58.4391C57.1423 66.5622 62.7057 70.6237 62.7057 70.6237C74.5772 79.0431 82.9786 88.9037 87.9099 100.205C85.9705 90.6064 81.1954 81.152 73.5847 71.8422C67.1464 66.0134 61.7632 60.5529 57.4351 55.4606C39.4375 34.7048 43.9395 4.0169 72.436 10.7158Z" fill="url(#paint0_linear_62_1554)"/>
<path fill-rule="evenodd" clip-rule="evenodd" d="M116.618 61.37C99.1925 75.5876 90.6433 88.4194 90.9705 99.8653C93.3862 88.7028 102.412 78.5866 118.048 69.5167C137 58.3397 144.15 44.8514 139.495 29.0518C136.8 42.598 129.174 53.3707 116.618 61.37Z" fill="url(#paint1_linear_62_1554)"/>
<path fill-rule="evenodd" clip-rule="evenodd" d="M103.157 49.7395C103.372 49.7395 103.338 49.6416 103.333 49.1938L103.262 48.0965C103.23 47.881 103.192 45.7927 103.227 45.5665C103.25 45.4142 103.265 44.3229 103.299 43.9369C103.323 43.659 103.341 43.2848 103.382 42.9971C103.412 42.7796 103.426 42.5855 103.454 42.3694C103.685 40.6228 104.069 38.9286 104.675 37.2868L105.081 36.2917C105.098 36.2522 105.121 36.2139 105.138 36.1744L105.251 35.9372C105.277 35.8872 105.277 35.8652 105.3 35.8112C105.439 35.4969 105.623 35.1941 105.78 34.8902C106.024 34.4168 106.316 33.9494 106.625 33.5186L106.72 33.38C106.748 33.3394 106.764 33.3099 106.791 33.2755C106.806 33.255 106.814 33.2489 106.826 33.2332L106.866 33.176C106.959 33.0391 107.058 32.9016 107.164 32.7734C107.376 32.5158 107.568 32.2497 107.795 32.005L108.148 31.6187C108.152 31.6146 108.162 31.6024 108.166 31.5982L108.466 31.2752C108.576 31.1648 108.701 31.0224 108.816 30.9258C108.894 30.8601 108.928 30.8315 109 30.7595L109.926 29.9553C109.999 29.8982 110.048 29.8567 110.12 29.7996C110.161 29.7674 110.178 29.7527 110.219 29.7234L110.317 29.6468C110.658 29.3728 111.07 29.0794 111.444 28.849L113.214 27.8195C113.262 27.7934 113.285 27.7864 113.333 27.7636C113.514 27.6778 113.717 27.546 113.915 27.4702L114.759 27.0888C115.416 26.8092 116.078 26.5504 116.783 26.3149C117.767 25.9863 119.022 25.6053 120.057 25.3913C120.833 25.2307 121.596 25.0479 122.381 24.9175C122.995 24.8156 125.498 24.4003 126.061 24.4003L124.655 24.8404C124.26 24.9736 123.73 25.0986 123.348 25.2617C123.271 25.2946 123.205 25.3088 123.128 25.3348L122.24 25.6707C121.744 25.8871 121.24 26.0696 120.758 26.3079C120.694 26.3396 120.628 26.3648 120.557 26.3981L119.244 27.0665C119.204 27.0865 119.177 27.1031 119.142 27.1216C118.368 27.5341 117.644 28.0247 116.915 28.5108C116.484 28.7987 115.785 29.3196 115.372 29.6889C115.333 29.7234 115.323 29.7266 115.285 29.7581L114.869 30.1192C114.65 30.2945 113.793 31.1122 113.624 31.3045L111.96 33.2584C111.939 33.2864 111.921 33.3088 111.9 33.3343C111.711 33.5626 111.564 33.808 111.388 34.0477C110.977 34.609 110.637 35.2432 110.288 35.8447L110.08 36.2396C109.723 36.9548 109.611 37.2397 109.316 37.9073C109.195 38.1821 109.083 38.4987 108.988 38.785C108.903 39.0403 108.68 39.6621 108.627 39.9059L108.441 40.6312C107.73 43.5604 107.745 46.4622 108.495 49.3933L108.793 50.3599C108.848 50.511 108.895 50.6623 108.957 50.8183L109.16 51.2576L109.385 51.5766C109.417 51.6117 109.392 51.5854 109.425 51.6153C109.457 51.6454 109.475 51.6616 109.506 51.6892L109.559 51.7333C109.563 51.7357 109.567 51.7391 109.571 51.7415C109.977 52.032 110.425 52.1138 110.986 52.1138C114.1 52.1138 116.912 51.7948 119.763 51.0784C120.924 50.7868 122.081 50.4196 123.189 49.9758L124.049 49.6115C124.148 49.5705 124.245 49.5302 124.333 49.4867C124.39 49.4581 124.409 49.4471 124.481 49.421C124.648 49.36 125.72 48.8008 125.983 48.6488L126.765 48.1863C126.935 48.0786 127.095 47.9789 127.262 47.8673L127.985 47.3653C128.66 46.8883 128.989 46.5794 129.591 46.075C129.631 46.042 129.652 46.0139 129.689 45.9781C129.737 45.9318 129.759 45.9252 129.806 45.8815L130.224 45.4823C130.3 45.4061 130.361 45.3443 130.437 45.2682L132.223 43.1642C132.596 42.6286 132.957 42.0972 133.294 41.5328C133.4 41.3553 133.484 41.1907 133.591 41.0124C133.755 40.7385 134.007 40.2365 134.15 39.9375L134.75 38.5927C134.868 38.261 135.015 37.9402 135.127 37.6077C135.262 37.2048 135.415 36.8061 135.531 36.397L135.719 35.7683C136.106 34.4466 136.396 33.0458 136.588 31.6758L136.874 29.135C136.888 29.0048 136.898 28.8685 136.902 28.7401L137.018 25.2567C137.018 25.075 137.018 24.8934 137.018 24.7117L136.94 22.5717C136.936 22.212 136.882 21.7469 136.883 21.5003C136.883 21.157 136.813 20.8096 136.805 20.4691C136.788 19.8095 136.611 18.6406 136.552 17.9396C136.479 17.0874 136.28 15.8818 136.16 15.023L135.527 11.2784C135.463 10.9626 135.413 10.6445 135.352 10.3441C135.316 10.1631 135.298 10.0542 135.225 9.90728C135.014 9.47988 134.674 9.64685 134.395 9.86227C134.273 9.95735 134.209 10.0598 134.099 10.169C133.992 10.2759 133.909 10.3683 133.791 10.4629C133.635 10.587 133.479 10.7564 133.316 10.8829C133.031 11.1048 132.753 11.3372 132.453 11.5362L130.219 12.8789C130.147 12.9143 130.105 12.9476 130.031 12.9832C129.992 13.0025 129.96 13.0133 129.925 13.0318C129.89 13.05 129.864 13.0664 129.824 13.0868C129.751 13.1238 129.701 13.1434 129.627 13.1809L129.005 13.4923C128.265 13.8658 126.532 14.639 125.77 14.9226L125.237 15.1478C124.094 15.6305 122.926 16.0599 121.771 16.5213L118.318 17.889C118.166 17.9499 118.043 18.0091 117.89 18.063C117.738 18.1165 117.616 18.1783 117.464 18.2394L117.257 18.3246C116.895 18.4921 116.06 18.8024 115.769 18.9551C115.725 18.9782 115.712 18.9836 115.662 19.0048L114.949 19.3211C114.682 19.4541 114.389 19.562 114.12 19.6969L112.896 20.2809C112.611 20.4131 112.366 20.5566 112.087 20.6961C111.553 20.9635 111.045 21.2551 110.526 21.5455C110.39 21.6216 110.281 21.692 110.144 21.7663C110.067 21.8081 110.035 21.8337 109.963 21.8766L107.639 23.422C107.605 23.4462 107.625 23.4311 107.595 23.4554C107.236 23.7473 106.866 24.0201 106.523 24.3271C106.484 24.3617 106.474 24.3611 106.436 24.3957L104.781 26.0658C104.752 26.1028 104.746 26.1057 104.716 26.1373L103.998 27.0301C103.995 27.0334 103.992 27.0382 103.99 27.0416C103.988 27.0451 103.985 27.05 103.982 27.0535L102.896 28.7123C102.852 28.7849 102.827 28.8423 102.784 28.9119C102.744 28.9777 102.719 29.0282 102.68 29.0987L102.276 29.9015C102.25 29.9543 102.247 29.9489 102.222 30.0028L101.991 30.5311C101.796 30.9448 101.644 31.3744 101.499 31.8079C101.045 33.16 100.804 34.3135 100.604 35.7574C100.505 36.4695 100.455 37.3157 100.457 38.0236C100.457 38.2516 100.429 38.3724 100.454 38.5908C100.472 38.7524 100.457 39.0194 100.457 39.1915C100.456 39.3166 100.474 39.3596 100.477 39.4631C100.48 39.567 100.469 39.6657 100.484 39.7669L100.575 40.8827C100.613 41.3491 100.743 42.274 100.837 42.7017C100.963 43.2763 101.066 43.8834 101.214 44.4461C101.263 44.6312 101.295 44.8104 101.361 44.9982C101.38 45.052 101.381 45.0609 101.398 45.1186C101.423 45.207 101.444 45.2788 101.467 45.3606C101.556 45.6803 101.658 45.9829 101.761 46.2923L102.054 47.2054C102.181 47.6651 102.366 48.1185 102.492 48.5759C102.542 48.7551 102.707 49.3651 102.783 49.4912C102.851 49.6028 102.986 49.7395 103.157 49.7395Z" fill="url(#paint2_linear_62_1554)"/>
<path fill-rule="evenodd" clip-rule="evenodd" d="M103.798 17.2588C103.752 17.4563 103.318 18.1125 103.196 18.3486C102.94 18.8449 102.662 19.321 102.412 19.8213C101.866 20.9162 101.472 21.806 101.006 22.9666C100.421 24.424 99.9078 26.3502 99.6855 27.8908C99.6603 28.0656 99.6399 28.2143 99.6197 28.3893C99.6017 28.5458 99.5682 28.7548 99.5631 28.9165C99.5529 29.2439 99.5048 29.5964 99.5048 29.9868C99.5048 30.2645 99.4552 30.9114 99.5437 31.0961C99.6897 31.0961 99.67 31.0537 99.7216 30.924L100.017 30.1686C100.055 30.0832 100.093 30.0013 100.124 29.9257C100.254 29.6056 100.433 29.2993 100.586 28.9877C100.85 28.4488 101.335 27.7125 101.675 27.2567L102.436 26.2669C102.542 26.1362 102.653 26.0238 102.757 25.8886L102.919 25.7005C102.95 25.6654 102.975 25.6477 103.006 25.6126C103.043 25.5712 103.045 25.5573 103.084 25.5152C103.143 25.4511 103.204 25.4054 103.257 25.3384C103.386 25.1767 103.55 25.0477 103.686 24.8926C103.723 24.8511 103.725 24.8371 103.764 24.7952L106.374 22.4858C106.774 22.1727 107.185 21.8864 107.595 21.5876C107.936 21.3387 108.294 21.1188 108.651 20.8944L112.035 19.0104C112.191 18.9324 112.347 18.8641 112.508 18.7833L114.916 17.6731C115.084 17.6006 115.232 17.5314 115.401 17.4589L116.878 16.8362C117.66 16.5267 117.178 15.9993 116.873 15.5655C116.679 15.2906 116.488 15.0258 116.284 14.7538C115.937 14.2898 115.587 13.8179 115.206 13.3816L114.228 12.2406C113.979 11.9289 113.637 11.6203 113.398 11.3201C113.245 11.1276 112.504 10.4313 112.357 10.2414L111.642 9.53741C111.579 9.4744 111.53 9.42428 111.467 9.36187L111.108 9.02139C111.042 8.95497 110.991 8.92533 110.923 8.85634L109.825 7.85419C109.791 7.82234 109.774 7.79788 109.737 7.76726L109.079 7.19999C109.042 7.16986 109.025 7.14656 108.988 7.11644C108.944 7.08129 108.936 7.07792 108.893 7.03657C108.85 6.99549 108.839 6.99374 108.797 6.95776C108.753 6.92044 108.739 6.90106 108.694 6.86629L108.124 6.38578C107.232 5.63351 106.319 4.90931 105.383 4.20835C105.309 4.15281 105.256 4.11314 105.183 4.05825L100.892 0.981182C100.591 0.781358 100.067 0.304008 99.6862 0.469975C99.3749 0.605788 99.4271 1.18348 99.4271 1.63109C99.4271 4.37111 98.0368 7.99951 97.0069 10.4555C96.7267 11.1237 96.4674 11.7692 96.1762 12.4257C96.0289 12.7576 95.9014 13.0793 95.7551 13.4051L94.4667 16.3571C94.3897 16.5221 94.326 16.6763 94.2541 16.8448L93.6189 18.3297C93.2587 19.1472 92.9394 19.9923 92.6082 20.8203C92.3373 21.4978 92.1031 22.1898 91.8394 22.872C91.6837 23.2747 91.5539 23.6973 91.4236 24.1069C91.4221 24.1116 91.4205 24.1167 91.4189 24.1215L91.1437 24.9776C91.0819 25.1624 91.0441 25.332 90.9837 25.5179C90.9245 25.6998 90.8816 25.8775 90.8292 26.0638C90.7735 26.2616 90.7354 26.4362 90.6781 26.6325C90.571 26.9996 90.4897 27.3909 90.4114 27.7666C90.2236 28.6668 89.9733 30.0347 89.9273 30.9599C89.9244 31.0172 89.9309 31.0744 89.9245 31.1322C89.9124 31.2414 89.9172 31.3593 89.9069 31.4843C89.7919 32.8777 89.9825 34.5784 90.2882 35.9698C90.3325 36.1715 90.3697 36.3608 90.4255 36.5523C90.8376 37.9647 91.1087 38.7657 91.7727 40.107C91.8139 40.1901 91.8519 40.2446 91.896 40.3339L92.0846 40.6899C92.4454 41.3153 92.8299 41.9184 93.2336 42.5165C93.2838 42.5909 93.3307 42.6439 93.3815 42.7186C93.4768 42.859 93.5783 42.9855 93.6794 43.1208C93.9045 43.4222 94.1411 43.723 94.391 44.0038C94.4271 44.0444 94.4406 44.0539 94.4732 44.0965C94.5062 44.1396 94.5164 44.148 94.556 44.1888L95.6531 45.3667L96.9356 46.5342C97.6315 47.1823 99.157 48.2588 99.9941 48.7637L100.443 49.0337C100.999 49.3667 101.099 49.183 100.906 48.6093L100.221 46.493C100.103 46.1393 100.006 45.7604 99.8958 45.398C99.692 44.7295 99.2623 44.1777 98.9063 43.5869C98.8155 43.4363 98.7372 43.2981 98.6463 43.1467C98.4688 42.8508 98.3126 42.5448 98.1579 42.2347L97.8081 41.5147C97.7675 41.4348 97.7328 41.3507 97.6984 41.2743C97.1621 40.0801 96.7783 38.8235 96.5179 37.5332C96.4361 37.1282 96.3898 36.7532 96.3297 36.3204L96.2403 35.359C96.2397 35.302 96.2442 35.2393 96.2412 35.183C96.2366 35.0975 96.2238 35.1016 96.221 35.0086C96.1675 33.2158 96.3739 31.6346 96.7928 29.9557C96.9794 29.2081 97.2069 28.5237 97.4575 27.7996L97.853 26.7946C97.9958 26.4712 98.1238 26.1407 98.2812 25.8222L98.734 24.8746C98.9664 24.4087 99.2343 23.9591 99.4789 23.4996C99.7982 22.8998 100.172 22.3255 100.531 21.7507C100.577 21.6761 100.624 21.6109 100.671 21.5406L102.555 18.8352C102.647 18.712 103.61 17.3848 103.798 17.2588Z" fill="url(#paint3_linear_62_1554)"/>
<path d="M26.937 139.544H26.751L25.3558 137.215C25.0768 136.749 24.8365 136.431 24.6349 136.26C24.4334 136.089 24.1466 135.973 23.7747 135.911C23.4026 135.848 22.7825 135.817 21.9144 135.817H7.77669C6.87758 135.817 6.2265 135.848 5.82342 135.911C5.42039 135.973 5.07163 136.112 4.77704 136.33C4.48253 136.547 4.07171 136.936 3.54467 137.495L1.73092 139.544H1.54492L2.38198 135.072H5.6374L14.4735 102.739H14.6595L23.5886 135.072H26.937V139.544ZM21.6354 135.072L14.1945 107.864H14.0085L6.66055 135.072H21.6354ZM29.6343 108.516V107.864H37.4008V108.33L36.0521 108.516C35.432 108.61 35.0135 108.788 34.7964 109.052C34.5794 109.316 34.4709 109.821 34.4709 110.566V129.761H34.6569L46.8414 112.337V108.516H43.9115V107.864H51.678V108.33L50.2829 108.516C49.6318 108.61 49.19 108.788 48.9574 109.052C48.7249 109.316 48.6087 109.821 48.6087 110.566V135.165H51.678V135.817H43.9115V135.351L45.2602 135.165C45.8803 135.072 46.2989 134.893 46.5159 134.629C46.7329 134.365 46.8414 133.861 46.8414 133.115V113.921H46.6554L34.4709 131.345V135.165H37.4008V135.817H29.6343V135.351L31.0295 135.165C31.6806 135.072 32.1224 134.893 32.3549 134.629C32.5875 134.365 32.7037 133.861 32.7037 133.115V108.516H29.6343ZM71.8614 135.351C74.2798 135.351 76.45 134.816 78.3723 133.744C80.2945 132.673 81.7982 131.143 82.8833 129.155C83.9684 127.167 84.511 124.853 84.511 122.213C84.511 119.232 83.8599 116.7 82.5578 114.619C81.2556 112.538 79.5504 110.97 77.4421 109.914C75.3339 108.858 73.0706 108.33 70.6523 108.33C68.234 108.33 66.0638 108.866 64.1415 109.937C62.2193 111.009 60.7156 112.538 59.6305 114.526C58.5453 116.514 58.0028 118.828 58.0028 121.468C58.0028 124.45 58.6538 126.981 59.956 129.062C61.2582 131.143 62.9634 132.711 65.0717 133.767C67.1799 134.823 69.4432 135.351 71.8614 135.351ZM56.2356 122.213C56.2356 119.232 56.9409 116.615 58.3516 114.363C59.7623 112.111 61.6535 110.388 64.0253 109.192C66.397 107.996 69.0091 107.398 71.8614 107.398C74.5278 107.398 76.9616 107.965 79.1629 109.099C81.3641 110.232 83.1003 111.863 84.3715 113.991C85.6426 116.118 86.2783 118.611 86.2783 121.468C86.2783 124.45 85.5729 127.066 84.1622 129.318C82.7516 131.57 80.8603 133.294 78.4885 134.49C76.1168 135.685 73.5047 136.283 70.6523 136.283C67.986 136.283 65.5522 135.716 63.3509 134.583C61.1497 133.449 59.4135 131.818 58.1423 129.691C56.8711 127.563 56.2356 125.071 56.2356 122.213ZM90.8358 108.516V107.864H94.5562L106.834 133.302H107.02L118.553 107.864H122.367V108.33L120.971 108.516C120.32 108.61 119.879 108.788 119.646 109.052C119.414 109.316 119.297 109.821 119.297 110.566V135.165H122.367V135.817H114.6V135.351L115.949 135.165C116.569 135.072 116.987 134.893 117.205 134.629C117.422 134.365 117.53 133.861 117.53 133.115V112.896H117.251L106.648 136.283H106.369L95.0213 112.896H94.7423V135.165H97.6721V135.817H90.8358V135.351L92.231 135.165C92.882 135.072 93.3239 134.893 93.5564 134.629C93.7889 134.365 93.9052 133.861 93.9052 133.115V108.516H90.8358ZM126.645 108.516V107.864H141.62C142.457 107.864 143.054 107.779 143.41 107.608C143.767 107.437 144.131 107.119 144.503 106.653H144.689V110.939H144.503L143.573 110.007C142.922 109.355 142.38 108.943 141.945 108.773C141.511 108.602 140.721 108.516 139.574 108.516H131.482V120.443H139.76V114.852H140.597V126.779H139.76V121.189H131.482V135.165H139.946C141.124 135.165 141.938 135.088 142.387 134.932C142.837 134.777 143.449 134.389 144.224 133.767L145.247 132.929L145.433 133.022L144.41 137.029H144.224C143.914 136.563 143.596 136.244 143.271 136.074C142.945 135.903 142.426 135.817 141.713 135.817H126.645V135.351L128.04 135.165C128.691 135.072 129.133 134.893 129.366 134.629C129.598 134.365 129.715 133.861 129.715 133.115V108.516H126.645ZM159.013 112.243L152.688 135.072H165.384L159.199 112.243H159.013ZM148.689 135.072H151.758L159.478 107.398H159.664L167.291 135.072H170.453V139.172H170.267L168.965 137.029C168.624 136.501 168.26 136.167 167.872 136.027C167.485 135.887 166.702 135.817 165.524 135.817H153.897C152.657 135.817 151.82 135.903 151.386 136.074C150.952 136.244 150.44 136.656 149.851 137.308L148.131 139.172H147.945L148.689 135.072Z" fill="#3F65AB" stroke="#2870C5" stroke-width="0.449561" stroke-miterlimit="22.9256"/>
<path d="M7.6001 101.473H85.999" stroke="#2870C5" stroke-width="3.9959" stroke-miterlimit="22.9256"/>
<path d="M164.398 101.473H85.999" stroke="#2870C5" stroke-width="3.9959" stroke-miterlimit="22.9256"/>
<defs>
<linearGradient id="paint0_linear_62_1554" x1="23.4132" y1="24.1478" x2="87.2427" y2="91.112" gradientUnits="userSpaceOnUse">
<stop stop-color="#064894"/>
<stop offset="0.239216" stop-color="#6586C2"/>
<stop offset="0.611765" stop-color="#B3BEE1"/>
<stop offset="1" stop-color="#FEFEFE"/>
</linearGradient>
<linearGradient id="paint1_linear_62_1554" x1="90.9614" y1="64.4585" x2="168.358" y2="50.7647" gradientUnits="userSpaceOnUse">
<stop stop-color="#064894"/>
<stop offset="0.239216" stop-color="#6586C2"/>
<stop offset="1" stop-color="#FEFEFE"/>
</linearGradient>
<linearGradient id="paint2_linear_62_1554" x1="103.092" y1="55.029" x2="148.48" y2="16.4068" gradientUnits="userSpaceOnUse">
<stop stop-color="#FBFBFB"/>
<stop offset="1" stop-color="#295FA6"/>
</linearGradient>
<linearGradient id="paint3_linear_62_1554" x1="99.461" y1="16.0731" x2="117.314" y2="24.7922" gradientUnits="userSpaceOnUse">
<stop stop-color="#F5ACA9"/>
<stop offset="1" stop-color="#B30000"/>
</linearGradient>
</defs>
</svg>
