<svg width="80" height="80" viewBox="0 0 80 80" fill="none" xmlns="http://www.w3.org/2000/svg">
<path fill-rule="evenodd" clip-rule="evenodd" d="M33.6915 13.7248C36.6413 14.5925 38.8622 15.8601 40.3544 17.5277C29.6146 0.769564 1.54929 18.9998 21.4029 35.8821C26.5782 39.6535 29.1658 41.5393 29.1658 41.5393C34.6874 45.4483 38.5951 50.0264 40.8887 55.2736C39.9866 50.8169 37.7657 46.4274 34.2258 42.105C31.2313 39.3988 28.7274 36.8635 26.7144 34.4992C18.3434 24.8626 20.4374 10.6147 33.6915 13.7248Z" fill="url(#paint0_linear_36_98)"/>
<path fill-rule="evenodd" clip-rule="evenodd" d="M54.2414 37.2429C46.1365 43.844 42.1602 49.8016 42.3123 55.1158C43.4359 49.9332 47.6339 45.2364 54.9065 41.0253C63.7216 35.836 67.0468 29.5736 64.882 22.2381C63.6282 28.5274 60.0813 33.529 54.2414 37.2429Z" fill="url(#paint1_linear_36_98)"/>
<path fill-rule="evenodd" clip-rule="evenodd" d="M47.9807 31.8434C48.0807 31.8434 48.065 31.798 48.0624 31.5901L48.0297 31.0806C48.0146 30.9806 47.9972 30.011 48.0131 29.906C48.0238 29.8353 48.031 29.3286 48.0467 29.1494C48.058 29.0204 48.0663 28.8466 48.0852 28.7131C48.0994 28.6121 48.1057 28.522 48.119 28.4216C48.2261 27.6107 48.4048 26.8241 48.6868 26.0618L48.8754 25.5998C48.8836 25.5815 48.8941 25.5637 48.9023 25.5454L48.9548 25.4352C48.9665 25.412 48.9665 25.4018 48.9776 25.3767C49.0419 25.2308 49.1276 25.0902 49.2006 24.9491C49.3142 24.7293 49.4498 24.5123 49.5938 24.3123L49.6379 24.248C49.651 24.2291 49.6583 24.2154 49.6707 24.1994C49.678 24.1899 49.6815 24.1871 49.6872 24.1798L49.7058 24.1532C49.7491 24.0897 49.795 24.0258 49.8442 23.9663C49.943 23.8467 50.0324 23.7232 50.138 23.6096L50.302 23.4302C50.3038 23.4283 50.3088 23.4226 50.3106 23.4207L50.4498 23.2707C50.501 23.2195 50.5591 23.1534 50.6128 23.1085C50.6493 23.078 50.6649 23.0647 50.6982 23.0313L51.1291 22.6579C51.1628 22.6314 51.1859 22.6121 51.2194 22.5856C51.2384 22.5707 51.2462 22.5639 51.2654 22.5503L51.3111 22.5147C51.4697 22.3875 51.661 22.2513 51.8353 22.1443L52.6585 21.6663C52.6805 21.6542 52.6915 21.651 52.7138 21.6404C52.7978 21.6005 52.8923 21.5393 52.9842 21.5041L53.3769 21.327C53.6824 21.1972 53.9904 21.0771 54.3182 20.9678C54.7759 20.8152 55.3599 20.6383 55.8411 20.5389C56.2022 20.4644 56.5568 20.3795 56.9223 20.3189C57.2078 20.2716 58.3717 20.0788 58.6339 20.0788L57.9799 20.2832C57.7961 20.345 57.5497 20.403 57.3719 20.4787C57.336 20.494 57.3054 20.5006 57.2697 20.5127L56.8564 20.6686C56.6256 20.7691 56.3912 20.8539 56.1673 20.9645C56.1375 20.9792 56.1068 20.9909 56.0737 21.0064L55.4628 21.3167C55.4443 21.326 55.4318 21.3337 55.4156 21.3423C55.0556 21.5338 54.7186 21.7616 54.38 21.9873C54.1794 22.1209 53.8544 22.3628 53.6619 22.5342C53.6439 22.5503 53.6391 22.5517 53.6218 22.5664L53.428 22.734C53.3261 22.8154 52.9275 23.1951 52.8488 23.2844L52.0753 24.1915C52.0656 24.2045 52.0571 24.2149 52.0473 24.2267C51.9595 24.3327 51.891 24.4467 51.8093 24.558C51.6179 24.8186 51.4595 25.113 51.2973 25.3923L51.2005 25.5756C51.0347 25.9077 50.9824 26.04 50.8453 26.3499C50.7889 26.4775 50.7369 26.6245 50.6926 26.7574C50.6531 26.876 50.5493 27.1647 50.5249 27.2779L50.4384 27.6146C50.1076 28.9746 50.1144 30.3218 50.4637 31.6827L50.6022 32.1315C50.6277 32.2016 50.6493 32.2719 50.6785 32.3443L50.7728 32.5483L50.8776 32.6964C50.8921 32.7127 50.8807 32.7005 50.8958 32.7144C50.911 32.7283 50.9194 32.7358 50.9338 32.7486L50.9585 32.7691C50.96 32.7703 50.9622 32.7718 50.9637 32.7729C51.1527 32.9078 51.361 32.9458 51.6222 32.9458C53.0706 32.9458 54.3782 32.7977 55.7045 32.4651C56.2444 32.3297 56.7825 32.1592 57.2979 31.9532L57.698 31.784C57.7438 31.765 57.7893 31.7463 57.8298 31.7261C57.8565 31.7128 57.8655 31.7077 57.8987 31.6956C57.9766 31.6672 58.4751 31.4076 58.5974 31.337L58.961 31.1223C59.0402 31.0723 59.1147 31.026 59.1924 30.9742L59.5285 30.7411C59.8425 30.5197 59.9957 30.3762 60.2758 30.1421C60.2941 30.1267 60.304 30.1137 60.3212 30.0971C60.3435 30.0756 60.3537 30.0725 60.3757 30.0522L60.5698 29.8669C60.6052 29.8315 60.6339 29.8028 60.6692 29.7675L61.4995 28.7906C61.673 28.542 61.8414 28.2952 61.9981 28.0332C62.0474 27.9508 62.0865 27.8743 62.136 27.7916C62.2121 27.6644 62.3293 27.4313 62.396 27.2925L62.6752 26.6682C62.73 26.5141 62.7983 26.3652 62.8503 26.2108C62.9134 26.0238 62.9842 25.8387 63.0382 25.6487L63.1258 25.3568C63.3059 24.7432 63.4407 24.0928 63.5298 23.4567L63.663 22.2771C63.6697 22.2166 63.6743 22.1533 63.6758 22.0937L63.7301 20.4764C63.7301 20.3921 63.7301 20.3077 63.7301 20.2234L63.6936 19.2298C63.6917 19.0628 63.6667 18.8469 63.667 18.7324C63.6674 18.573 63.6347 18.4117 63.6307 18.2536C63.6231 17.9474 63.5408 17.4047 63.513 17.0792C63.4792 16.6835 63.3869 16.1238 63.331 15.7251L63.0366 13.9865C63.0068 13.8399 62.9833 13.6922 62.9553 13.5527C62.9384 13.4687 62.9298 13.4181 62.8961 13.3499C62.798 13.1515 62.6395 13.229 62.5102 13.329C62.4531 13.3732 62.4237 13.4207 62.3725 13.4714C62.3224 13.5211 62.2839 13.564 62.2288 13.6079C62.1566 13.6655 62.0838 13.7442 62.0082 13.8029C61.8758 13.9059 61.7464 14.0138 61.6067 14.1062L60.5676 14.7296C60.5341 14.746 60.5146 14.7615 60.4804 14.778C60.4618 14.787 60.4471 14.792 60.4307 14.8006C60.4146 14.809 60.4027 14.8167 60.384 14.8261C60.3499 14.8433 60.3268 14.8524 60.2921 14.8698L60.003 15.0144C59.659 15.1878 58.8527 15.5468 58.4984 15.6784L58.2506 15.783C57.7189 16.0071 57.1756 16.2065 56.6384 16.4207L55.0325 17.0557C54.9618 17.084 54.9044 17.1115 54.8332 17.1365C54.7627 17.1614 54.7056 17.19 54.635 17.2184L54.539 17.258C54.3705 17.3357 53.9819 17.4798 53.8468 17.5507C53.8264 17.5614 53.8204 17.5639 53.797 17.5738L53.4656 17.7206C53.3414 17.7824 53.2049 17.8325 53.0798 17.8951L52.5106 18.1662C52.3781 18.2276 52.2638 18.2942 52.1342 18.359C51.8859 18.4832 51.6494 18.6185 51.4081 18.7534C51.3448 18.7887 51.294 18.8214 51.2305 18.8559C51.1948 18.8753 51.1796 18.8872 51.1462 18.9071L50.0655 19.6246C50.0493 19.6358 50.0588 19.6288 50.0449 19.6401C49.878 19.7756 49.706 19.9023 49.546 20.0448C49.528 20.0609 49.5237 20.0606 49.5056 20.0767L48.7359 20.8521C48.7226 20.8692 48.7195 20.8706 48.7059 20.8853L48.3717 21.2998C48.3707 21.3013 48.3692 21.3036 48.3681 21.3051C48.367 21.3068 48.3656 21.309 48.3645 21.3107L47.8593 22.0808C47.8389 22.1145 47.8272 22.1412 47.8074 22.1735C47.7887 22.204 47.7768 22.2275 47.7586 22.2602L47.5711 22.6329C47.5588 22.6575 47.5574 22.655 47.5458 22.68L47.4383 22.9253C47.3477 23.1173 47.2769 23.3168 47.2093 23.5181C46.9984 24.1458 46.8863 24.6814 46.7931 25.3518C46.7471 25.6824 46.724 26.0753 46.7248 26.4039C46.725 26.5098 46.7121 26.5658 46.7234 26.6673C46.7319 26.7423 46.7251 26.8663 46.7246 26.9462C46.7243 27.0042 46.7327 27.0242 46.7341 27.0722C46.7355 27.1205 46.7305 27.1663 46.7376 27.2133L46.7797 27.7314C46.7974 27.9479 46.8577 28.3773 46.9015 28.5759C46.9602 28.8427 47.0079 29.1245 47.0771 29.3858C47.0999 29.4717 47.1146 29.5549 47.1454 29.6421C47.1543 29.6671 47.1549 29.6712 47.1624 29.698C47.1739 29.7391 47.184 29.7724 47.1946 29.8104C47.2361 29.9588 47.2834 30.0993 47.3313 30.243L47.4676 30.6669C47.5266 30.8803 47.613 31.0908 47.6716 31.3032C47.6946 31.3864 47.7714 31.6696 47.8069 31.7281C47.8383 31.78 47.9012 31.8434 47.9807 31.8434Z" fill="url(#paint2_linear_36_98)"/>
<path fill-rule="evenodd" clip-rule="evenodd" d="M48.2786 16.7627C48.2572 16.8544 48.055 17.159 47.9984 17.2687C47.8794 17.4991 47.7502 17.7201 47.634 17.9524C47.3798 18.4608 47.1967 18.8739 46.9799 19.4127C46.7078 20.0894 46.4691 20.9837 46.3657 21.699C46.354 21.7801 46.3445 21.8491 46.3351 21.9304C46.3267 22.0031 46.3111 22.1001 46.3088 22.1752C46.304 22.3272 46.2816 22.4909 46.2816 22.6721C46.2817 22.801 46.2586 23.1014 46.2997 23.1872C46.3676 23.1872 46.3585 23.1675 46.3825 23.1073L46.5197 22.7565C46.5374 22.7169 46.5553 22.6789 46.5695 22.6437C46.6299 22.4951 46.7136 22.3529 46.7846 22.2083C46.9075 21.958 47.1328 21.6162 47.2911 21.4046L47.6448 20.945C47.6942 20.8843 47.7458 20.8321 47.7944 20.7694L47.8698 20.6821C47.8842 20.6658 47.8959 20.6575 47.9103 20.6412C47.9273 20.622 47.9283 20.6155 47.9464 20.596C47.9739 20.5663 48.0021 20.545 48.0269 20.5139C48.0868 20.4389 48.1631 20.379 48.2265 20.3069C48.2435 20.2877 48.2446 20.2812 48.2626 20.2617L49.4765 19.1895C49.6627 19.0441 49.8538 18.9112 50.0444 18.7725C50.2031 18.6569 50.3696 18.5548 50.5357 18.4506L52.1097 17.5759C52.1821 17.5397 52.2546 17.508 52.3296 17.4705L53.4496 16.9551C53.5276 16.9214 53.5966 16.8893 53.6754 16.8556L54.3622 16.5665C54.7261 16.4228 54.5018 16.1779 54.3597 15.9765C54.2697 15.8489 54.1808 15.726 54.086 15.5997C53.9243 15.3842 53.7617 15.1651 53.5846 14.9626L53.1294 14.4328C53.0139 14.2881 52.8548 14.1448 52.7436 14.0054C52.6723 13.916 52.3276 13.5928 52.2595 13.5046L51.9268 13.1778C51.8975 13.1485 51.8749 13.1252 51.8456 13.0963L51.6784 12.9382C51.6477 12.9073 51.6241 12.8936 51.5924 12.8615L51.0818 12.3963C51.0659 12.3815 51.0578 12.3701 51.0409 12.3559L50.735 12.0925C50.7176 12.0785 50.7098 12.0677 50.6924 12.0537C50.6722 12.0374 50.6684 12.0358 50.6482 12.0167C50.6282 11.9976 50.6232 11.9968 50.6035 11.9801C50.583 11.9627 50.5766 11.9537 50.5556 11.9376L50.2908 11.7145C49.8757 11.3652 49.4509 11.029 49.0156 10.7035C48.9812 10.6778 48.9566 10.6593 48.9227 10.6339L46.9268 9.20522C46.7871 9.11244 46.543 8.89082 46.366 8.96787C46.2212 9.03093 46.2455 9.29914 46.2455 9.50696C46.2455 10.7791 45.5988 12.4637 45.1198 13.604C44.9895 13.9143 44.8689 14.214 44.7334 14.5187C44.665 14.6728 44.6056 14.8222 44.5376 14.9735L43.9383 16.344C43.9025 16.4206 43.8729 16.4922 43.8395 16.5705L43.544 17.2599C43.3765 17.6394 43.228 18.0318 43.0739 18.4163C42.9479 18.7308 42.839 19.0521 42.7163 19.3688C42.6439 19.5558 42.5836 19.752 42.5229 19.9422C42.5222 19.9443 42.5215 19.9467 42.5208 19.9489L42.3928 20.3464C42.364 20.4322 42.3465 20.511 42.3183 20.5973C42.2908 20.6817 42.2708 20.7642 42.2465 20.8507C42.2206 20.9426 42.2028 21.0236 42.1762 21.1148C42.1264 21.2852 42.0886 21.4669 42.0522 21.6413C41.9648 22.0593 41.8484 22.6944 41.827 23.1239C41.8257 23.1505 41.8287 23.1771 41.8257 23.2039C41.8201 23.2546 41.8223 23.3093 41.8175 23.3674C41.764 24.0143 41.8527 24.8039 41.9948 25.4499C42.0154 25.5436 42.0328 25.6315 42.0587 25.7204C42.2504 26.3762 42.3765 26.748 42.6853 27.3708C42.7045 27.4094 42.7221 27.4347 42.7427 27.4761L42.8304 27.6414C42.9982 27.9318 43.177 28.2118 43.3648 28.4895C43.3882 28.524 43.41 28.5486 43.4336 28.5833C43.4779 28.6485 43.5251 28.7072 43.5722 28.77C43.6768 28.91 43.7869 29.0496 43.9031 29.18C43.9199 29.1989 43.9262 29.2032 43.9414 29.2231C43.9567 29.243 43.9614 29.2469 43.9799 29.2659L44.4902 29.8128L45.0866 30.3548C45.4103 30.6558 46.1199 31.1556 46.5092 31.39L46.7182 31.5153C46.9767 31.6699 47.023 31.5846 46.9333 31.3183L46.6148 30.3357C46.5597 30.1715 46.5149 29.9956 46.4635 29.8273C46.3687 29.5169 46.1689 29.2608 46.0033 28.9864C45.9611 28.9165 45.9246 28.8523 45.8823 28.782C45.7998 28.6447 45.7271 28.5026 45.6552 28.3586L45.4925 28.0244C45.4736 27.9872 45.4574 27.9482 45.4415 27.9127C45.192 27.3583 45.0135 26.7749 44.8924 26.1758C44.8543 25.9878 44.8328 25.8137 44.8049 25.6127L44.7633 25.1664C44.763 25.1399 44.7651 25.1108 44.7637 25.0846C44.7615 25.0449 44.7556 25.0468 44.7543 25.0036C44.7294 24.1713 44.8254 23.4372 45.0203 22.6577C45.107 22.3106 45.2129 21.9928 45.3294 21.6566L45.5134 21.19C45.5798 21.0399 45.6393 20.8864 45.7125 20.7386L45.9231 20.2986C46.0312 20.0823 46.1558 19.8736 46.2696 19.6602C46.4181 19.3817 46.5919 19.1151 46.7588 18.8482C46.7804 18.8136 46.8022 18.7833 46.8239 18.7507L47.7003 17.4946C47.7432 17.4374 48.1912 16.8212 48.2786 16.7627Z" fill="url(#paint3_linear_36_98)"/>
<path d="M12.529 73.5382H12.4425L11.7936 72.4567C11.6638 72.2404 11.552 72.0926 11.4583 72.0133C11.3646 71.9339 11.2312 71.8799 11.0582 71.851C10.8851 71.8222 10.5967 71.8078 10.1929 71.8078H3.61724C3.19906 71.8078 2.89623 71.8222 2.70875 71.851C2.52129 71.8799 2.35908 71.9448 2.22206 72.0457C2.08508 72.1466 1.894 72.3269 1.64886 72.5865L0.805262 73.5382H0.71875L1.10808 71.4617H2.62223L6.73202 56.4501H6.81857L10.9716 71.4617H12.529V73.5382ZM10.0631 71.4617L6.60226 58.8294H6.51575L3.09811 71.4617H10.0631ZM13.7836 59.1323V58.8294H17.3959V59.0457L16.7686 59.1323C16.4802 59.1756 16.2855 59.2585 16.1846 59.381C16.0836 59.5036 16.0332 59.7379 16.0332 60.084V68.9958H16.1197L21.7869 60.906V59.1323H20.4242V58.8294H24.0365V59.0457L23.3876 59.1323C23.0847 59.1756 22.8792 59.2585 22.7711 59.381C22.6629 59.5036 22.6089 59.7379 22.6089 60.084V71.505H24.0365V71.8078H20.4242V71.5915L21.0514 71.505C21.3398 71.4617 21.5345 71.3788 21.6355 71.2562C21.7364 71.1336 21.7869 70.8993 21.7869 70.5532V61.6414H21.7004L16.0332 69.7312V71.505H17.3959V71.8078H13.7836V71.5915L14.4325 71.505C14.7353 71.4617 14.9408 71.3788 15.049 71.2562C15.1571 71.1336 15.2112 70.8993 15.2112 70.5532V59.1323H13.7836ZM33.4241 71.5915C34.5489 71.5915 35.5583 71.3427 36.4524 70.8452C37.3464 70.3477 38.0458 69.6375 38.5506 68.7146C39.0553 67.7917 39.3076 66.7174 39.3076 65.4916C39.3076 64.1073 39.0048 62.932 38.3991 61.9659C37.7935 60.9997 37.0004 60.2715 36.0198 59.7812C35.0392 59.2909 33.9865 59.0457 32.8617 59.0457C31.7369 59.0457 30.7275 59.2945 29.8334 59.792C28.9394 60.2895 28.24 60.9997 27.7353 61.9226C27.2306 62.8455 26.9782 63.9198 26.9782 65.1456C26.9782 66.5299 27.281 67.7052 27.8867 68.6714C28.4924 69.6375 29.2855 70.3657 30.2661 70.856C31.2467 71.3463 32.2993 71.5915 33.4241 71.5915ZM26.1562 65.4916C26.1562 64.1073 26.4843 62.8924 27.1405 61.8469C27.7966 60.8015 28.6762 60.0011 29.7794 59.4459C30.8825 58.8907 32.0974 58.6132 33.4241 58.6132C34.6643 58.6132 35.7962 58.8763 36.8201 59.4027C37.844 59.929 38.6515 60.6861 39.2427 61.6739C39.834 62.6617 40.1296 63.8189 40.1296 65.1456C40.1296 66.5299 39.8015 67.7448 39.1454 68.7903C38.4893 69.8358 37.6096 70.6361 36.5065 71.1913C35.4033 71.7465 34.1884 72.0241 32.8617 72.0241C31.6216 72.0241 30.4896 71.7609 29.4657 71.2346C28.4419 70.7082 27.6344 69.9511 27.0431 68.9634C26.4519 67.9756 26.1562 66.8183 26.1562 65.4916ZM42.2494 59.1323V58.8294H43.9798L49.6903 70.6397H49.7768L55.1412 58.8294H56.9149V59.0457L56.266 59.1323C55.9631 59.1756 55.7577 59.2585 55.6495 59.381C55.5414 59.5036 55.4873 59.7379 55.4873 60.084V71.505H56.9149V71.8078H53.3026V71.5915L53.9299 71.505C54.2183 71.4617 54.413 71.3788 54.5139 71.2562C54.6148 71.1336 54.6653 70.8993 54.6653 70.5532V61.1655H54.5355L49.6038 72.0241H49.474L44.1961 61.1655H44.0664V71.505H45.4291V71.8078H42.2494V71.5915L42.8983 71.505C43.2011 71.4617 43.4066 71.3788 43.5148 71.2562C43.6229 71.1336 43.677 70.8993 43.677 70.5532V59.1323H42.2494ZM58.9049 59.1323V58.8294H65.8699C66.2593 58.8294 66.5368 58.7898 66.7027 58.7105C66.8685 58.6312 67.038 58.4834 67.211 58.267H67.2975V60.2571H67.211L66.7784 59.8244C66.4756 59.5216 66.2232 59.3305 66.0213 59.2513C65.8195 59.1719 65.4517 59.1323 64.9182 59.1323H61.1545V64.6697H65.0047V62.074H65.3941V67.6114H65.0047V65.0158H61.1545V71.505H65.0912C65.6392 71.505 66.0177 71.4689 66.2268 71.3968C66.4359 71.3247 66.7207 71.1444 67.0812 70.856L67.5571 70.4667L67.6436 70.5099L67.1678 72.3702H67.0812C66.937 72.1539 66.7892 72.0061 66.6378 71.9267C66.4864 71.8474 66.2449 71.8078 65.9132 71.8078H58.9049V71.5915L59.5538 71.505C59.8566 71.4617 60.0621 71.3788 60.1703 71.2562C60.2785 71.1336 60.3325 70.8993 60.3325 70.5532V59.1323H58.9049ZM73.9597 60.8627L71.018 71.4617H76.9231L74.0462 60.8627H73.9597ZM69.1578 71.4617H70.5854L74.176 58.6132H74.2626L77.81 71.4617H79.2808V73.3652H79.1943L78.5887 72.3702C78.43 72.125 78.2606 71.97 78.0803 71.9051C77.9001 71.8402 77.536 71.8078 76.988 71.8078H71.5804C71.0036 71.8078 70.6142 71.8474 70.4123 71.9267C70.2104 72.0061 69.9725 72.1971 69.6985 72.5L68.8982 73.3652H68.8116L69.1578 71.4617Z" fill="#2870C5" stroke="#2870C5" stroke-width="0.280976" stroke-miterlimit="22.9256"/>
<path d="M3.53516 55.8618H39.9998" stroke="#2870C5" stroke-width="2.49744" stroke-miterlimit="22.9256"/>
<path d="M76.4646 55.8618H40" stroke="#2870C5" stroke-width="2.49744" stroke-miterlimit="22.9256"/>
<defs>
<linearGradient id="paint0_linear_36_98" x1="10.8902" y1="19.9612" x2="40.5228" y2="51.1045" gradientUnits="userSpaceOnUse">
<stop stop-color="#064894"/>
<stop offset="0.239216" stop-color="#6586C2"/>
<stop offset="0.611765" stop-color="#B3BEE1"/>
<stop offset="1" stop-color="#FEFEFE"/>
</linearGradient>
<linearGradient id="paint1_linear_36_98" x1="42.3081" y1="38.6769" x2="78.3026" y2="32.297" gradientUnits="userSpaceOnUse">
<stop stop-color="#064894"/>
<stop offset="0.239216" stop-color="#6586C2"/>
<stop offset="1" stop-color="#FEFEFE"/>
</linearGradient>
<linearGradient id="paint2_linear_36_98" x1="47.9504" y1="34.2993" x2="69.0293" y2="16.3304" gradientUnits="userSpaceOnUse">
<stop stop-color="#FBFBFB"/>
<stop offset="1" stop-color="#295FA6"/>
</linearGradient>
<linearGradient id="paint3_linear_36_98" x1="46.2613" y1="16.2122" x2="54.5595" y2="20.272" gradientUnits="userSpaceOnUse">
<stop stop-color="#F5ACA9"/>
<stop offset="1" stop-color="#B30000"/>
</linearGradient>
</defs>
</svg>
