<svg width="195" height="56" viewBox="0 0 195 56" fill="none" xmlns="http://www.w3.org/2000/svg">
<path fill-rule="evenodd" clip-rule="evenodd" d="M22.5841 5.88384C26.0513 6.92738 28.6619 8.45202 30.4159 10.4578C17.7919 -9.69819 -15.1968 12.2283 8.13969 32.5336C14.2229 37.0698 17.2644 39.3378 17.2644 39.3378C23.7547 44.0394 28.3479 49.5457 31.0439 55.8569C29.9836 50.4966 27.373 45.217 23.2121 40.0182C19.6922 36.7633 16.7492 33.714 14.3829 30.8704C4.54346 19.2798 7.00476 2.14305 22.5841 5.88384Z" fill="url(#paint0_linear_212_1369)"/>
<path fill-rule="evenodd" clip-rule="evenodd" d="M46.7416 34.1704C37.2149 42.1098 32.5409 49.2754 32.7198 55.6671C34.0405 49.4337 38.975 43.7846 47.5233 38.7197C57.8849 32.4782 61.7934 24.9461 59.2488 16.1232C57.7751 23.6877 53.606 29.7034 46.7416 34.1704Z" fill="url(#paint1_linear_212_1369)"/>
<path fill-rule="evenodd" clip-rule="evenodd" d="M39.3799 27.6762C39.4974 27.6762 39.4789 27.6215 39.4759 27.3714L39.4374 26.7587C39.4196 26.6383 39.3992 25.4722 39.4179 25.3459C39.4304 25.2608 39.439 24.6514 39.4574 24.4359C39.4706 24.2807 39.4805 24.0717 39.5026 23.9111C39.5194 23.7896 39.5268 23.6812 39.5424 23.5605C39.6682 22.5852 39.8783 21.6391 40.2098 20.7223L40.4315 20.1666C40.4411 20.1446 40.4534 20.1232 40.4631 20.1011L40.5248 19.9687C40.5386 19.9407 40.5386 19.9284 40.5516 19.8983C40.6272 19.7228 40.7279 19.5537 40.8137 19.384C40.9472 19.1196 41.1066 18.8586 41.2759 18.618L41.3277 18.5407C41.3431 18.518 41.3518 18.5015 41.3663 18.4823C41.3749 18.4709 41.379 18.4674 41.3857 18.4587L41.4076 18.4267C41.4585 18.3503 41.5124 18.2735 41.5702 18.2019C41.6864 18.0581 41.7914 17.9095 41.9156 17.7728L42.1084 17.5571C42.1105 17.5548 42.1163 17.548 42.1184 17.5457L42.282 17.3653C42.3423 17.3037 42.4106 17.2241 42.4737 17.1702C42.5165 17.1335 42.5349 17.1175 42.5741 17.0773L43.0805 16.6283C43.1202 16.5964 43.1473 16.5732 43.1867 16.5413C43.209 16.5233 43.2181 16.5151 43.2407 16.4988L43.2945 16.456C43.4809 16.303 43.7057 16.1391 43.9106 16.0104L44.8782 15.4356C44.9041 15.421 44.917 15.4171 44.9433 15.4044C45.042 15.3564 45.1531 15.2828 45.2611 15.2405L45.7226 15.0275C46.0817 14.8714 46.4438 14.7269 46.8291 14.5954C47.3671 14.4118 48.0536 14.1991 48.6192 14.0796C49.0436 13.9899 49.4604 13.8879 49.89 13.815C50.2256 13.7581 51.5937 13.5262 51.9019 13.5262L51.1331 13.772C50.9171 13.8464 50.6275 13.9162 50.4185 14.0072C50.3763 14.0256 50.3403 14.0335 50.2984 14.0481L49.8125 14.2356C49.5413 14.3564 49.2657 14.4584 49.0026 14.5914C48.9675 14.6092 48.9315 14.6232 48.8925 14.6418L48.1745 15.0151C48.1528 15.0262 48.138 15.0355 48.119 15.0459C47.6958 15.2762 47.2998 15.5501 46.9017 15.8216C46.666 15.9824 46.2839 16.2733 46.0577 16.4795C46.0366 16.4987 46.0308 16.5005 46.0105 16.5181L45.7827 16.7198C45.6629 16.8176 45.1944 17.2743 45.102 17.3817L44.1927 18.4727C44.1813 18.4884 44.1713 18.5009 44.1598 18.5151C44.0566 18.6426 43.9761 18.7797 43.88 18.9135C43.6551 19.227 43.4689 19.5811 43.2782 19.917L43.1644 20.1375C42.9696 20.5369 42.9081 20.696 42.747 21.0688C42.6806 21.2223 42.6195 21.3991 42.5675 21.559C42.5211 21.7015 42.399 22.0488 42.3704 22.1849L42.2686 22.5899C41.8799 24.2256 41.8879 25.8461 42.2983 27.4829L42.4612 28.0226C42.4912 28.107 42.5166 28.1915 42.5509 28.2786L42.6617 28.5239L42.7849 28.7021C42.802 28.7216 42.7886 28.707 42.8063 28.7237C42.8241 28.7405 42.834 28.7495 42.851 28.7649L42.88 28.7895C42.8818 28.7909 42.8844 28.7928 42.8862 28.7941C43.1083 28.9564 43.3531 29.0021 43.6601 29.0021C45.3627 29.0021 46.8996 28.8239 48.4586 28.4239C49.0932 28.261 49.7256 28.0559 50.3316 27.8081L50.8018 27.6047C50.8557 27.5818 50.9091 27.5593 50.9568 27.535C50.9882 27.519 50.9987 27.5129 51.0378 27.4983C51.1293 27.4642 51.7153 27.152 51.859 27.0671L52.2863 26.8089C52.3795 26.7487 52.467 26.693 52.5583 26.6307L52.9535 26.3504C53.3225 26.084 53.5026 25.9115 53.8318 25.6298C53.8534 25.6114 53.865 25.5957 53.8852 25.5757C53.9114 25.5499 53.9234 25.5462 53.9492 25.5218L54.1775 25.2988C54.219 25.2563 54.2528 25.2218 54.2943 25.1793L55.2702 24.0044C55.4742 23.7053 55.6721 23.4085 55.8563 23.0934C55.9142 22.9942 55.9602 22.9023 56.0184 22.8028C56.1078 22.6498 56.2456 22.3695 56.3239 22.2025L56.6521 21.4516C56.7166 21.2663 56.7968 21.0872 56.858 20.9015C56.9321 20.6765 57.0153 20.4539 57.0788 20.2254L57.1818 19.8743C57.3935 19.1363 57.5519 18.354 57.6567 17.589L57.8133 16.1702C57.8212 16.0975 57.8265 16.0213 57.8283 15.9497L57.8921 14.0044C57.8921 13.903 57.8921 13.8015 57.8921 13.7001L57.8492 12.5051C57.8469 12.3042 57.8176 12.0445 57.8179 11.9068C57.8184 11.7151 57.78 11.5211 57.7753 11.3309C57.7663 10.9626 57.6697 10.3099 57.6369 9.91839C57.5972 9.44249 57.4887 8.76927 57.4231 8.28972L57.0769 6.1986C57.042 6.02229 57.0143 5.84466 56.9814 5.67691C56.9616 5.57584 56.9514 5.51503 56.9118 5.43297C56.7965 5.1943 56.6102 5.28754 56.4582 5.40783C56.3911 5.46093 56.3565 5.51816 56.2964 5.57912C56.2375 5.63882 56.1922 5.69041 56.1275 5.74322C56.0426 5.81252 55.957 5.90714 55.8682 5.9778C55.7125 6.10166 55.5604 6.23147 55.3963 6.34261L54.1748 7.09239C54.1354 7.11215 54.1126 7.13074 54.0724 7.15063C54.0505 7.16143 54.0332 7.16743 54.0139 7.17777C53.995 7.18792 53.981 7.1971 53.959 7.20848C53.919 7.22913 53.8917 7.24008 53.851 7.26104L53.5111 7.43492C53.1068 7.64348 52.1591 8.07526 51.7427 8.23363L51.4514 8.3594C50.8264 8.62896 50.1878 8.86871 49.5563 9.1264L47.6687 9.89014C47.5856 9.92415 47.5181 9.95719 47.4345 9.98733C47.3515 10.0172 47.2844 10.0517 47.2014 10.0858L47.0886 10.1334C46.8905 10.2269 46.4338 10.4002 46.275 10.4855C46.2511 10.4984 46.244 10.5014 46.2165 10.5132L45.8269 10.6898C45.6809 10.7641 45.5205 10.8244 45.3735 10.8997L44.7044 11.2258C44.5486 11.2997 44.4142 11.3798 44.2619 11.4577C43.9701 11.607 43.6921 11.7698 43.4085 11.932C43.3341 11.9745 43.2744 12.0138 43.1997 12.0553C43.1578 12.0786 43.1399 12.0929 43.1006 12.1169L41.8304 12.9799C41.8113 12.9934 41.8225 12.985 41.8062 12.9985C41.6099 13.1615 41.4078 13.3139 41.2198 13.4853C41.1986 13.5046 41.1934 13.5043 41.1722 13.5236L40.2675 14.4563C40.2519 14.4769 40.2483 14.4785 40.2322 14.4962L39.8394 14.9947C39.8382 14.9966 39.8365 14.9993 39.8352 15.0012C39.8339 15.0031 39.8323 15.0058 39.831 15.0078L39.2371 15.9341C39.2131 15.9747 39.1993 16.0067 39.1761 16.0456C39.1542 16.0823 39.1402 16.1105 39.1187 16.1499L38.8984 16.5982C38.8839 16.6277 38.8823 16.6247 38.8687 16.6547L38.7423 16.9498C38.6358 17.1808 38.5526 17.4207 38.4731 17.6628C38.2252 18.4178 38.0934 19.062 37.9839 19.8683C37.9298 20.2659 37.9027 20.7385 37.9036 21.1337C37.9038 21.2611 37.8886 21.3285 37.902 21.4505C37.9119 21.5408 37.9039 21.6898 37.9034 21.7859C37.903 21.8558 37.9128 21.8798 37.9145 21.9376C37.9162 21.9956 37.9103 22.0507 37.9187 22.1072L37.9682 22.7304C37.989 22.9908 38.0598 23.5073 38.1112 23.7461C38.1803 24.067 38.2364 24.406 38.3177 24.7202C38.3444 24.8236 38.3617 24.9236 38.398 25.0285C38.4084 25.0586 38.4091 25.0635 38.418 25.0958C38.4315 25.1451 38.4434 25.1852 38.4558 25.2309C38.5046 25.4095 38.5602 25.5784 38.6165 25.7512L38.7767 26.2611C38.846 26.5178 38.9476 26.771 39.0165 27.0264C39.0435 27.1265 39.1339 27.4671 39.1755 27.5375C39.2124 27.5999 39.2864 27.6762 39.3799 27.6762Z" fill="url(#paint2_linear_212_1369)"/>
<path fill-rule="evenodd" clip-rule="evenodd" d="M39.7302 9.53763C39.7051 9.64789 39.4674 10.0143 39.4009 10.1462C39.261 10.4233 39.1091 10.6892 38.9726 10.9686C38.6738 11.58 38.4585 12.0768 38.2038 12.725C37.8839 13.5388 37.6033 14.6144 37.4818 15.4747C37.468 15.5723 37.4569 15.6554 37.4458 15.7531C37.4359 15.8405 37.4176 15.9572 37.4149 16.0475C37.4093 16.2303 37.383 16.4272 37.383 16.6452C37.383 16.8003 37.3558 17.1615 37.4042 17.2647C37.4841 17.2647 37.4733 17.241 37.5015 17.1686L37.6627 16.7467C37.6836 16.6991 37.7046 16.6533 37.7214 16.6111C37.7923 16.4324 37.8907 16.2613 37.9742 16.0873C38.1186 15.7863 38.3835 15.3752 38.5695 15.1206L38.9852 14.5679C39.0433 14.4949 39.104 14.4322 39.1612 14.3567L39.2497 14.2517C39.2666 14.2321 39.2804 14.2222 39.2973 14.2026C39.3173 14.1794 39.3185 14.1717 39.3398 14.1482C39.3721 14.1124 39.4052 14.0868 39.4344 14.0494C39.5048 13.9592 39.5945 13.8871 39.6691 13.8005C39.689 13.7773 39.6903 13.7695 39.7115 13.7461L41.1383 12.4565C41.3572 12.2816 41.5817 12.1218 41.8058 11.9549C41.9923 11.8159 42.188 11.6931 42.3834 11.5678L44.2335 10.5157C44.3186 10.4722 44.4038 10.434 44.4919 10.389L45.8084 9.76898C45.9001 9.72847 45.9812 9.68984 46.0738 9.64932L46.8811 9.30163C47.3088 9.12878 47.0452 8.83429 46.8782 8.59205C46.7723 8.43853 46.6679 8.29067 46.5564 8.13878C46.3664 7.87967 46.1752 7.61615 45.9671 7.37251L45.4321 6.73534C45.2963 6.5613 45.1092 6.38894 44.9785 6.22132C44.8947 6.1138 44.4896 5.72496 44.4096 5.61892L44.0184 5.22581C43.984 5.19062 43.9575 5.16264 43.923 5.12779L43.7265 4.93765C43.6904 4.90056 43.6626 4.88401 43.6254 4.84549L43.0252 4.28587C43.0065 4.26808 42.997 4.25442 42.9771 4.23732L42.6175 3.92054C42.5971 3.90372 42.588 3.89071 42.5675 3.87389C42.5437 3.85426 42.5392 3.85238 42.5156 3.82929C42.492 3.80635 42.4862 3.80537 42.463 3.78528C42.4389 3.76444 42.4314 3.75361 42.4067 3.7342L42.0954 3.46587C41.6076 3.04578 41.1083 2.64138 40.5966 2.24995C40.556 2.21893 40.5272 2.19678 40.4873 2.16613L38.1413 0.447822C37.9771 0.336236 37.6901 0.0696732 37.4822 0.162353C37.312 0.238194 37.3405 0.560788 37.3405 0.810744C37.3405 2.34084 36.5804 4.36701 36.0174 5.73847C35.8642 6.11164 35.7224 6.47212 35.5632 6.83869C35.4827 7.02403 35.4129 7.20371 35.333 7.38561L34.6286 9.03406C34.5865 9.12622 34.5517 9.21234 34.5124 9.3064L34.1651 10.1356C33.9682 10.5921 33.7936 11.064 33.6125 11.5265C33.4644 11.9047 33.3364 12.2912 33.1922 12.6722C33.1071 12.897 33.0361 13.133 32.9649 13.3617C32.9641 13.3644 32.9632 13.3672 32.9623 13.3699L32.8119 13.848C32.7781 13.9512 32.7574 14.0459 32.7244 14.1497C32.692 14.2513 32.6686 14.3505 32.6399 14.4545C32.6095 14.565 32.5886 14.6625 32.5573 14.7721C32.4988 14.9771 32.4543 15.1956 32.4115 15.4054C32.3089 15.9081 32.172 16.672 32.1468 17.1886C32.1453 17.2206 32.1488 17.2525 32.1453 17.2848C32.1387 17.3458 32.1413 17.4116 32.1357 17.4815C32.0728 18.2596 32.177 19.2093 32.3441 19.9863C32.3684 20.0989 32.3887 20.2046 32.4192 20.3115C32.6445 21.1003 32.7927 21.5475 33.1558 22.2966C33.1783 22.343 33.199 22.3734 33.2232 22.4232L33.3263 22.622C33.5235 22.9713 33.7337 23.3081 33.9544 23.6421C33.9819 23.6836 34.0075 23.7132 34.0353 23.7549C34.0874 23.8334 34.1429 23.904 34.1982 23.9795C34.3212 24.1478 34.4506 24.3158 34.5872 24.4726C34.607 24.4953 34.6143 24.5006 34.6322 24.5244C34.6502 24.5484 34.6557 24.5531 34.6774 24.5759L35.2772 25.2337L35.9783 25.8856C36.3588 26.2476 37.1928 26.8487 37.6505 27.1306L37.8961 27.2814C38.2 27.4674 38.2543 27.3648 38.149 27.0444L37.7745 25.8626C37.7098 25.6651 37.6572 25.4535 37.5968 25.2512C37.4853 24.8779 37.2504 24.5698 37.0557 24.2398C37.0061 24.1557 36.9633 24.0785 36.9136 23.994C36.8166 23.8288 36.7312 23.6579 36.6466 23.4847L36.4554 23.0827C36.4332 23.038 36.4142 22.9911 36.3954 22.9484C36.1022 22.2815 35.8924 21.5798 35.75 20.8593C35.7053 20.6331 35.68 20.4237 35.6471 20.182L35.5982 19.6452C35.5979 19.6134 35.6004 19.5783 35.5987 19.5469C35.5962 19.4991 35.5892 19.5014 35.5877 19.4495C35.5584 18.4484 35.6713 17.5654 35.9003 16.6278C36.0023 16.2104 36.1267 15.8282 36.2637 15.4238L36.4799 14.8626C36.558 14.682 36.628 14.4974 36.714 14.3196L36.9616 13.7905C37.0886 13.5303 37.2351 13.2792 37.3688 13.0226C37.5434 12.6876 37.7477 12.3669 37.9438 12.046C37.9693 12.0043 37.9949 11.9679 38.0203 11.9287L39.0505 10.4179C39.1009 10.3491 39.6275 9.60797 39.7302 9.53763Z" fill="url(#paint3_linear_212_1369)"/>
<path d="M93.5582 28.7725H93.4296L92.465 27.1647C92.2721 26.8432 92.1059 26.6235 91.9666 26.5056C91.8272 26.3877 91.6289 26.3073 91.3717 26.2644C91.1145 26.2216 90.6857 26.2001 90.0855 26.2001H80.3106C79.689 26.2001 79.2388 26.2216 78.9601 26.2644C78.6815 26.3073 78.4403 26.4038 78.2367 26.5538C78.033 26.7039 77.749 26.9718 77.3846 27.3577L76.1306 28.7725H76.002L76.5807 25.6857H78.8315L84.9408 3.37051H85.0695L91.2431 25.6857H93.5582V28.7725ZM89.8926 25.6857L84.7479 6.9075H84.6193L79.5389 25.6857H89.8926ZM95.4232 7.35771V6.9075H100.793V7.22905L99.8605 7.35771C99.4317 7.42201 99.1424 7.54528 98.9923 7.72745C98.8422 7.90968 98.7672 8.25801 98.7672 8.77247V22.0201H98.8958L107.32 9.99433V7.35771H105.295V6.9075H110.664V7.22905L109.7 7.35771C109.25 7.42201 108.944 7.54528 108.783 7.72745C108.623 7.90968 108.542 8.25801 108.542 8.77247V25.75H110.664V26.2001H105.295V25.8786L106.227 25.75C106.656 25.6857 106.945 25.5624 107.095 25.3802C107.245 25.198 107.32 24.8497 107.32 24.3352V11.0876H107.192L98.7672 23.1133V25.75H100.793V26.2001H95.4232V25.8786L96.3878 25.75C96.8379 25.6857 97.1434 25.5624 97.3042 25.3802C97.465 25.198 97.5454 24.8497 97.5454 24.3352V7.35771H95.4232ZM124.619 25.8786C126.291 25.8786 127.792 25.5088 129.121 24.7693C130.45 24.0297 131.49 22.974 132.24 21.6021C132.99 20.2302 133.365 18.6332 133.365 16.811C133.365 14.7532 132.915 13.0061 132.015 11.5699C131.115 10.1337 129.936 9.05112 128.478 8.32232C127.02 7.59346 125.455 7.22905 123.783 7.22905C122.111 7.22905 120.611 7.59885 119.282 8.33838C117.953 9.07796 116.913 10.1337 116.163 11.5056C115.412 12.8775 115.037 14.4745 115.037 16.2966C115.037 18.3545 115.487 20.1015 116.388 21.5378C117.288 22.974 118.467 24.0565 119.925 24.7853C121.382 25.5142 122.947 25.8786 124.619 25.8786ZM113.815 16.811C113.815 14.7532 114.303 12.9472 115.279 11.393C116.254 9.83895 117.561 8.64921 119.201 7.82392C120.841 6.99864 122.647 6.58601 124.619 6.58601C126.463 6.58601 128.146 6.97719 129.668 7.75963C131.19 8.54206 132.39 9.66744 133.269 11.1358C134.148 12.6042 134.587 14.3245 134.587 16.2966C134.587 18.3545 134.099 20.1605 133.124 21.7146C132.149 23.2687 130.841 24.4584 129.201 25.2837C127.561 26.109 125.755 26.5217 123.783 26.5217C121.94 26.5217 120.257 26.1304 118.735 25.3481C117.213 24.5656 116.013 23.4402 115.134 21.9719C114.255 20.5035 113.815 18.7832 113.815 16.811ZM137.738 7.35771V6.9075H140.311L148.799 24.4638H148.928L156.902 6.9075H159.539V7.22905L158.574 7.35771C158.124 7.42201 157.819 7.54528 157.658 7.72745C157.497 7.90968 157.417 8.25801 157.417 8.77247V25.75H159.539V26.2001H154.169V25.8786L155.102 25.75C155.53 25.6857 155.82 25.5624 155.97 25.3802C156.12 25.198 156.195 24.8497 156.195 24.3352V10.3802H156.002L148.671 26.5217H148.478L140.632 10.3802H140.439V25.75H142.465V26.2001H137.738V25.8786L138.703 25.75C139.153 25.6857 139.459 25.5624 139.619 25.3802C139.78 25.198 139.861 24.8497 139.861 24.3352V7.35771H137.738ZM162.497 7.35771V6.9075H172.851C173.43 6.9075 173.842 6.84859 174.089 6.73066C174.335 6.61279 174.587 6.39305 174.844 6.07149H174.973V9.02972H174.844L174.201 8.38661C173.751 7.93646 173.376 7.65241 173.076 7.53454C172.776 7.41661 172.229 7.35771 171.436 7.35771H165.841V15.5892H171.565V11.7307H172.143V19.9622H171.565V16.1037H165.841V25.75H171.693C172.508 25.75 173.071 25.6964 173.381 25.5892C173.692 25.482 174.116 25.2141 174.651 24.7853L175.359 24.2066L175.487 24.2709L174.78 27.0361H174.651C174.437 26.7146 174.217 26.4949 173.992 26.377C173.767 26.2591 173.408 26.2001 172.915 26.2001H162.497V25.8786L163.462 25.75C163.912 25.6857 164.217 25.5624 164.378 25.3802C164.539 25.198 164.619 24.8497 164.619 24.3352V7.35771H162.497ZM184.877 9.93003L180.504 25.6857H189.282L185.005 9.93003H184.877ZM177.738 25.6857H179.86L185.198 6.58601H185.327L190.6 25.6857H192.787V28.5153H192.658L191.758 27.0361C191.522 26.6717 191.27 26.4413 191.002 26.3449C190.734 26.2484 190.193 26.2001 189.378 26.2001H181.34C180.482 26.2001 179.903 26.2591 179.603 26.377C179.303 26.4949 178.949 26.7789 178.542 27.2291L177.352 28.5153H177.224L177.738 25.6857Z" fill="#2870C5" stroke="#2870C5" stroke-width="0.566915" stroke-miterlimit="22.9256"/>
<path d="M76.002 35.201L193.858 35.201" stroke="#2870C5" stroke-width="0.535709" stroke-linecap="round"/>
<path d="M76.212 52.7345V51.4445C76.4619 51.4445 76.6819 51.3945 76.8719 51.2945C77.0619 51.1845 77.2219 51.0345 77.3519 50.8445C77.4919 50.6545 77.5919 50.4445 77.6519 50.2145C77.7319 49.9145 77.7869 49.6045 77.8169 49.2845C77.8569 48.9545 77.8819 48.6245 77.8919 48.2945C77.9119 47.9645 77.9219 47.6495 77.9219 47.3495L78.0269 42.0246H85.0919V52.6295H83.7869V43.2095H79.3319L79.2419 46.5095C79.2219 47.2395 79.2019 47.9445 79.1819 48.6245C79.1719 49.2945 79.1119 49.9045 79.0019 50.4545C78.9019 51.0045 78.7019 51.4645 78.4019 51.8345C78.1819 52.1045 77.8919 52.3195 77.5319 52.4795C77.1819 52.6295 76.7419 52.7145 76.212 52.7345ZM87.4072 52.6295V44.7245H88.6822V50.7845C88.7522 50.6445 88.8472 50.4945 88.9672 50.3345C89.0872 50.1645 89.1822 50.0345 89.2522 49.9445L93.0772 44.7245H94.3372V52.6295H93.0622V46.5695C92.9822 46.7195 92.8922 46.8595 92.7922 46.9895C92.7022 47.1195 92.6172 47.2395 92.5372 47.3495L88.6522 52.6295H87.4072ZM100.993 52.6295V49.5845C100.613 49.6545 100.243 49.7045 99.8827 49.7345C99.5327 49.7545 99.2177 49.7645 98.9377 49.7645C98.1977 49.7645 97.6127 49.6495 97.1827 49.4195C96.7527 49.1895 96.4477 48.8395 96.2677 48.3695C96.0877 47.8895 95.9977 47.2945 95.9977 46.5845V44.7245H97.2727V46.4945C97.2727 46.9545 97.3177 47.3445 97.4077 47.6645C97.4977 47.9845 97.6727 48.2295 97.9327 48.3995C98.1927 48.5595 98.5827 48.6395 99.1027 48.6395C99.4027 48.6395 99.7177 48.6245 100.048 48.5945C100.388 48.5645 100.703 48.5195 100.993 48.4595V44.7245H102.268V52.6295H100.993ZM104.282 52.6295V44.7245H105.557V48.1895H109.517V44.7245H110.792V52.6295H109.517V49.3145H105.557V52.6295H104.282ZM112.807 52.6295V44.7245H114.112V47.7395H115.537C116.007 47.7395 116.432 47.7795 116.812 47.8595C117.192 47.9395 117.517 48.0695 117.787 48.2495C118.057 48.4295 118.262 48.6745 118.402 48.9845C118.542 49.2845 118.612 49.6645 118.612 50.1245C118.612 50.5645 118.537 50.9445 118.387 51.2645C118.237 51.5845 118.022 51.8445 117.742 52.0445C117.472 52.2445 117.147 52.3945 116.767 52.4945C116.397 52.5845 115.992 52.6295 115.552 52.6295H112.807ZM114.112 51.5195H114.532C114.882 51.5195 115.222 51.5145 115.552 51.5045C115.882 51.4845 116.177 51.4345 116.437 51.3545C116.707 51.2745 116.922 51.1445 117.082 50.9645C117.242 50.7745 117.322 50.5095 117.322 50.1695C117.322 49.8495 117.257 49.6045 117.127 49.4345C117.007 49.2545 116.847 49.1245 116.647 49.0445C116.447 48.9545 116.227 48.8995 115.987 48.8795C115.757 48.8595 115.527 48.8495 115.297 48.8495H114.112V51.5195ZM119.707 52.6295V44.7245H120.982V52.6295H119.707ZM122.988 52.6295V44.7245H124.263V50.7845C124.333 50.6445 124.428 50.4945 124.548 50.3345C124.668 50.1645 124.763 50.0345 124.833 49.9445L128.658 44.7245H129.918V52.6295H128.643V46.5695C128.563 46.7195 128.473 46.8595 128.373 46.9895C128.283 47.1195 128.198 47.2395 128.118 47.3495L124.233 52.6295H122.988ZM126.558 43.6145C125.768 43.6145 125.148 43.4445 124.698 43.1045C124.258 42.7645 124.028 42.2696 124.008 41.6196H125.178C125.198 41.9696 125.328 42.2246 125.568 42.3846C125.818 42.5446 126.153 42.6246 126.573 42.6246C126.993 42.6246 127.323 42.5446 127.563 42.3846C127.813 42.2246 127.948 41.9696 127.968 41.6196H129.138C129.128 42.0496 129.018 42.4146 128.808 42.7145C128.598 43.0145 128.303 43.2395 127.923 43.3895C127.543 43.5395 127.088 43.6145 126.558 43.6145ZM135.966 52.6295V44.7245H137.241V48.1295H138.621L140.961 44.7245H142.416L139.776 48.4895L142.641 52.6295H141.141L138.771 49.2395H137.241V52.6295H135.966ZM146.133 52.7195C145.773 52.7195 145.423 52.6745 145.083 52.5845C144.753 52.4845 144.453 52.3395 144.183 52.1495C143.923 51.9495 143.713 51.7045 143.553 51.4145C143.403 51.1145 143.328 50.7695 143.328 50.3795C143.328 49.9295 143.408 49.5495 143.568 49.2395C143.738 48.9295 143.963 48.6845 144.243 48.5045C144.523 48.3245 144.848 48.1945 145.218 48.1145C145.588 48.0345 145.973 47.9945 146.373 47.9945H148.698C148.698 47.5445 148.633 47.1545 148.503 46.8245C148.383 46.4945 148.183 46.2395 147.903 46.0595C147.623 45.8695 147.253 45.7745 146.793 45.7745C146.513 45.7745 146.253 45.8045 146.013 45.8645C145.773 45.9245 145.568 46.0195 145.398 46.1495C145.228 46.2795 145.103 46.4545 145.023 46.6745H143.658C143.728 46.3145 143.863 46.0095 144.063 45.7595C144.273 45.4995 144.523 45.2895 144.813 45.1295C145.113 44.9595 145.433 44.8345 145.773 44.7545C146.113 44.6745 146.453 44.6345 146.793 44.6345C147.553 44.6345 148.163 44.7895 148.623 45.0995C149.083 45.3995 149.418 45.8295 149.628 46.3895C149.838 46.9395 149.943 47.5945 149.943 48.3545V52.6295H148.878L148.803 51.6245C148.583 51.9245 148.318 52.1545 148.008 52.3145C147.698 52.4745 147.378 52.5795 147.048 52.6295C146.728 52.6895 146.423 52.7195 146.133 52.7195ZM146.253 51.5945C146.753 51.5945 147.183 51.5145 147.543 51.3545C147.913 51.1845 148.198 50.9395 148.398 50.6195C148.598 50.2995 148.698 49.9095 148.698 49.4495V49.0595H147.303C146.973 49.0595 146.648 49.0645 146.328 49.0745C146.008 49.0845 145.718 49.1245 145.458 49.1945C145.198 49.2645 144.988 49.3845 144.828 49.5545C144.678 49.7245 144.603 49.9695 144.603 50.2895C144.603 50.5895 144.678 50.8345 144.828 51.0245C144.988 51.2145 145.193 51.3595 145.443 51.4595C145.703 51.5495 145.973 51.5945 146.253 51.5945ZM155.248 52.7195C154.748 52.7195 154.303 52.6495 153.913 52.5095C153.523 52.3595 153.188 52.1545 152.908 51.8945C152.628 51.6245 152.398 51.3095 152.218 50.9495C152.038 50.5795 151.903 50.1795 151.813 49.7495C151.723 49.3195 151.678 48.8645 151.678 48.3845C151.678 47.6145 151.693 46.8995 151.723 46.2395C151.763 45.5695 151.873 44.9745 152.053 44.4545C152.233 43.9245 152.538 43.4845 152.968 43.1345C153.398 42.7845 154.003 42.5396 154.783 42.3996C155.183 42.3296 155.578 42.2696 155.968 42.2196C156.358 42.1696 156.753 42.1196 157.153 42.0696C157.283 42.0496 157.418 42.0296 157.558 42.0096C157.698 41.9896 157.843 41.9646 157.993 41.9346C158.153 41.9046 158.303 41.8796 158.443 41.8596V43.0295C158.333 43.0695 158.213 43.1045 158.083 43.1345C157.963 43.1545 157.833 43.1745 157.693 43.1945C157.563 43.2145 157.428 43.2295 157.288 43.2395C157.158 43.2495 157.028 43.2645 156.898 43.2845C156.768 43.2945 156.643 43.3095 156.523 43.3295C156.173 43.3695 155.803 43.4095 155.413 43.4495C155.023 43.4795 154.653 43.5595 154.303 43.6895C153.963 43.8095 153.673 44.0445 153.433 44.3945C153.313 44.5745 153.208 44.7895 153.118 45.0395C153.038 45.2895 152.978 45.5445 152.938 45.8045C152.908 46.0545 152.888 46.2945 152.878 46.5245C153.078 46.2445 153.323 46.0195 153.613 45.8495C153.903 45.6695 154.213 45.5395 154.543 45.4595C154.873 45.3695 155.188 45.3245 155.488 45.3245C156.208 45.3245 156.818 45.4745 157.318 45.7745C157.818 46.0645 158.198 46.4795 158.458 47.0195C158.718 47.5595 158.848 48.1895 158.848 48.9095C158.848 49.6295 158.708 50.2795 158.428 50.8595C158.148 51.4295 157.738 51.8845 157.198 52.2245C156.668 52.5545 156.018 52.7195 155.248 52.7195ZM155.278 51.5945C155.778 51.5945 156.198 51.4745 156.538 51.2345C156.878 50.9945 157.133 50.6745 157.303 50.2745C157.483 49.8745 157.573 49.4345 157.573 48.9545C157.573 48.4845 157.483 48.0645 157.303 47.6945C157.133 47.3145 156.878 47.0145 156.538 46.7945C156.208 46.5745 155.798 46.4645 155.308 46.4645C154.828 46.4645 154.413 46.5795 154.063 46.8095C153.723 47.0395 153.458 47.3495 153.268 47.7395C153.088 48.1195 152.998 48.5345 152.998 48.9845C152.998 49.4445 153.083 49.8745 153.253 50.2745C153.423 50.6745 153.673 50.9945 154.003 51.2345C154.343 51.4745 154.768 51.5945 155.278 51.5945ZM160.561 52.6295V44.7245H161.836V50.7845C161.906 50.6445 162.001 50.4945 162.121 50.3345C162.241 50.1645 162.336 50.0345 162.406 49.9445L166.231 44.7245H167.491V52.6295H166.216V46.5695C166.136 46.7195 166.046 46.8595 165.946 46.9895C165.856 47.1195 165.771 47.2395 165.691 47.3495L161.806 52.6295H160.561ZM169.496 52.6295V44.7245H170.771V48.1895H174.731V44.7245H176.006V52.6295H174.731V49.3145H170.771V52.6295H169.496ZM181.442 52.7195C180.602 52.7195 179.907 52.5495 179.357 52.2095C178.807 51.8595 178.397 51.3795 178.127 50.7695C177.857 50.1595 177.722 49.4645 177.722 48.6845C177.722 47.8945 177.862 47.1995 178.142 46.5995C178.432 45.9895 178.852 45.5095 179.402 45.1595C179.952 44.8095 180.627 44.6345 181.427 44.6345C182.017 44.6345 182.532 44.7495 182.972 44.9795C183.422 45.1995 183.792 45.4995 184.082 45.8795C184.382 46.2595 184.597 46.6845 184.727 47.1545C184.867 47.6245 184.927 48.1095 184.907 48.6095C184.897 48.6995 184.892 48.7895 184.892 48.8795C184.892 48.9695 184.887 49.0595 184.877 49.1495H179.012C179.052 49.6095 179.167 50.0245 179.357 50.3945C179.547 50.7645 179.817 51.0595 180.167 51.2795C180.517 51.4895 180.952 51.5945 181.472 51.5945C181.732 51.5945 181.992 51.5645 182.252 51.5045C182.522 51.4345 182.762 51.3195 182.972 51.1595C183.192 50.9995 183.347 50.7845 183.437 50.5145H184.742C184.622 51.0245 184.397 51.4445 184.067 51.7745C183.737 52.0945 183.342 52.3345 182.882 52.4945C182.422 52.6445 181.942 52.7195 181.442 52.7195ZM179.042 48.0395H183.617C183.607 47.5895 183.507 47.1945 183.317 46.8545C183.127 46.5145 182.867 46.2495 182.537 46.0595C182.217 45.8695 181.832 45.7745 181.382 45.7745C180.892 45.7745 180.477 45.8795 180.137 46.0895C179.807 46.2995 179.552 46.5745 179.372 46.9145C179.192 47.2545 179.082 47.6295 179.042 48.0395ZM188.465 52.6295V45.8495H185.75V44.7245H192.455V45.8495H189.74V52.6295H188.465Z" fill="#2870C5"/>
<defs>
<linearGradient id="paint0_linear_212_1369" x1="-4.21719" y1="13.3846" x2="31.4548" y2="50.0236" gradientUnits="userSpaceOnUse">
<stop stop-color="#064894"/>
<stop offset="0.239216" stop-color="#6586C2"/>
<stop offset="0.611765" stop-color="#B3BEE1"/>
<stop offset="1" stop-color="#FEFEFE"/>
</linearGradient>
<linearGradient id="paint1_linear_212_1369" x1="32.7148" y1="35.8951" x2="75.0817" y2="28.5563" gradientUnits="userSpaceOnUse">
<stop stop-color="#064894"/>
<stop offset="0.239216" stop-color="#6586C2"/>
<stop offset="1" stop-color="#FEFEFE"/>
</linearGradient>
<linearGradient id="paint2_linear_212_1369" x1="39.3442" y1="30.6299" x2="64.5984" y2="9.59087" gradientUnits="userSpaceOnUse">
<stop stop-color="#FBFBFB"/>
<stop offset="1" stop-color="#295FA6"/>
</linearGradient>
<linearGradient id="paint3_linear_212_1369" x1="37.359" y1="8.8755" x2="47.1983" y2="13.5799" gradientUnits="userSpaceOnUse">
<stop stop-color="#F5ACA9"/>
<stop offset="1" stop-color="#B30000"/>
</linearGradient>
</defs>
</svg>
