<svg width="60" height="60" viewBox="0 0 60 60" fill="none" xmlns="http://www.w3.org/2000/svg">
<circle cx="30" cy="30" r="29.5" fill="white" stroke="#E0E5EA"/>
<path fill-rule="evenodd" clip-rule="evenodd" d="M26.0467 20.0616C27.8959 20.6181 29.2882 21.4312 30.2236 22.501C23.4909 11.7512 5.89706 23.4453 18.3431 34.2746C21.5874 36.6939 23.2096 37.9035 23.2096 37.9035C26.671 40.411 29.1207 43.3477 30.5585 46.7136C29.993 43.8548 28.6007 41.0391 26.3816 38.2664C24.5044 36.5305 22.9348 34.9042 21.6728 33.3876C16.4251 27.206 17.7378 18.0665 26.0467 20.0616Z" fill="url(#paint0_linear_282_2602)"/>
<path fill-rule="evenodd" clip-rule="evenodd" d="M38.9301 35.1478C33.8492 39.3821 31.3565 43.2037 31.4519 46.6126C32.1562 43.2881 34.7879 40.2753 39.347 37.5741C44.8731 34.2453 46.9577 30.2282 45.6006 25.5227C44.8146 29.5571 42.5911 32.7654 38.9301 35.1478Z" fill="url(#paint1_linear_282_2602)"/>
<path fill-rule="evenodd" clip-rule="evenodd" d="M35.004 31.684C35.0667 31.684 35.0568 31.6549 35.0552 31.5215L35.0347 31.1947C35.0252 31.1305 35.0143 30.5086 35.0243 30.4412C35.031 30.3958 35.0356 30.0708 35.0454 29.9559C35.0524 29.8731 35.0577 29.7617 35.0695 29.676C35.0784 29.6112 35.0824 29.5534 35.0907 29.489C35.1578 28.9688 35.2698 28.4643 35.4467 27.9753L35.5649 27.679C35.57 27.6672 35.5766 27.6558 35.5817 27.644L35.6146 27.5734C35.622 27.5585 35.622 27.5519 35.6289 27.5358C35.6692 27.4422 35.723 27.3521 35.7687 27.2616C35.8399 27.1206 35.9249 26.9814 36.0152 26.853L36.0429 26.8118C36.0511 26.7997 36.0557 26.7909 36.0634 26.7807C36.068 26.7746 36.0702 26.7727 36.0738 26.7681L36.0855 26.751C36.1126 26.7103 36.1414 26.6693 36.1722 26.6311C36.2342 26.5544 36.2902 26.4752 36.3564 26.4023L36.4592 26.2872C36.4603 26.286 36.4635 26.2824 36.4646 26.2811L36.5518 26.1849C36.584 26.1521 36.6204 26.1096 36.654 26.0809C36.6769 26.0613 36.6867 26.0528 36.7076 26.0313L36.9777 25.7918C36.9988 25.7748 37.0133 25.7625 37.0343 25.7455C37.0462 25.7359 37.0511 25.7315 37.0631 25.7228L37.0918 25.7C37.1912 25.6184 37.3111 25.531 37.4204 25.4623L37.9364 25.1557C37.9502 25.148 37.9571 25.1459 37.9711 25.1391C38.0238 25.1135 38.083 25.0743 38.1406 25.0517L38.3868 24.9381C38.5783 24.8548 38.7714 24.7778 38.9769 24.7076C39.2638 24.6098 39.63 24.4963 39.9316 24.4326C40.158 24.3847 40.3803 24.3303 40.6094 24.2914C40.7884 24.2611 41.518 24.1374 41.6824 24.1374L41.2724 24.2685C41.1572 24.3082 41.0027 24.3454 40.8912 24.394C40.8687 24.4038 40.8495 24.408 40.8272 24.4157L40.5681 24.5158C40.4234 24.5802 40.2764 24.6346 40.1361 24.7055C40.1174 24.715 40.0982 24.7225 40.0774 24.7324L39.6945 24.9315C39.6829 24.9374 39.675 24.9424 39.6649 24.9479C39.4392 25.0707 39.2279 25.2169 39.0156 25.3616C38.8899 25.4474 38.6861 25.6025 38.5655 25.7125C38.5542 25.7228 38.5512 25.7237 38.5403 25.7331L38.4188 25.8406C38.3549 25.8928 38.1051 26.1364 38.0558 26.1937L37.5709 26.7756C37.5648 26.7839 37.5594 26.7906 37.5533 26.7982C37.4982 26.8662 37.4553 26.9393 37.4041 27.0106C37.2841 27.1778 37.1848 27.3667 37.0831 27.5458L37.0224 27.6634C36.9185 27.8765 36.8857 27.9613 36.7998 28.1601C36.7644 28.242 36.7318 28.3363 36.7041 28.4215C36.6793 28.4976 36.6142 28.6827 36.5989 28.7554L36.5447 28.9713C36.3373 29.8437 36.3416 30.708 36.5605 31.5809L36.6474 31.8688C36.6634 31.9138 36.6769 31.9588 36.6952 32.0053L36.7543 32.1361L36.8201 32.2312C36.8291 32.2416 36.822 32.2338 36.8315 32.2427C36.8409 32.2516 36.8462 32.2565 36.8553 32.2647L36.8708 32.2778C36.8717 32.2785 36.8731 32.2795 36.874 32.2802C36.9925 32.3668 37.123 32.3911 37.2868 32.3911C38.1948 32.3911 39.0145 32.2961 39.846 32.0828C40.1844 31.9959 40.5217 31.8866 40.8449 31.7544L41.0957 31.6459C41.1244 31.6337 41.1529 31.6217 41.1783 31.6087C41.1951 31.6002 41.2007 31.5969 41.2215 31.5892C41.2703 31.571 41.5828 31.4044 41.6595 31.3592L41.8874 31.2214C41.9371 31.1894 41.9838 31.1597 42.0325 31.1264L42.2432 30.9769C42.4401 30.8349 42.5361 30.7429 42.7117 30.5926C42.7232 30.5828 42.7293 30.5745 42.7401 30.5638C42.7541 30.55 42.7605 30.548 42.7743 30.535L42.896 30.4161C42.9182 30.3934 42.9362 30.375 42.9583 30.3524L43.4788 29.7257C43.5876 29.5662 43.6931 29.408 43.7914 29.2399C43.8223 29.187 43.8468 29.138 43.8778 29.0849C43.9255 29.0033 43.999 28.8538 44.0408 28.7648L44.2158 28.3643C44.2502 28.2654 44.293 28.1699 44.3256 28.0709C44.3652 27.9509 44.4095 27.8322 44.4434 27.7103L44.4983 27.5231C44.6112 27.1294 44.6957 26.7122 44.7516 26.3042L44.8351 25.5475C44.8393 25.5087 44.8422 25.4681 44.8431 25.4299L44.8771 24.3925C44.8771 24.3384 44.8771 24.2843 44.8771 24.2302L44.8543 23.5928C44.853 23.4857 44.8374 23.3472 44.8376 23.2737C44.8378 23.1715 44.8173 23.068 44.8148 22.9666C44.81 22.7702 44.7585 22.4221 44.741 22.2133C44.7198 21.9595 44.662 21.6004 44.627 21.3447L44.4424 20.2294C44.4237 20.1354 44.409 20.0406 44.3914 19.9512C44.3809 19.8973 44.3754 19.8648 44.3543 19.8211C44.2928 19.6938 44.1935 19.7435 44.1124 19.8077C44.0766 19.836 44.0581 19.8665 44.0261 19.899C43.9947 19.9309 43.9705 19.9584 43.936 19.9865C43.8907 20.0235 43.8451 20.074 43.7977 20.1116C43.7147 20.1777 43.6336 20.2469 43.546 20.3062L42.8946 20.7061C42.8736 20.7166 42.8614 20.7265 42.84 20.7371C42.8283 20.7429 42.8191 20.7461 42.8088 20.7516C42.7987 20.757 42.7912 20.7619 42.7795 20.768C42.7581 20.779 42.7436 20.7849 42.7219 20.796L42.5406 20.8888C42.325 21 41.8196 21.2303 41.5975 21.3147L41.4421 21.3818C41.1088 21.5256 40.7682 21.6535 40.4314 21.7909L39.4247 22.1982C39.3804 22.2163 39.3444 22.234 39.2998 22.25C39.2555 22.266 39.2198 22.2844 39.1755 22.3026L39.1153 22.3279C39.0097 22.3778 38.7661 22.4702 38.6814 22.5157C38.6686 22.5226 38.6648 22.5242 38.6502 22.5305L38.4424 22.6247C38.3645 22.6643 38.279 22.6965 38.2006 22.7366L37.8438 22.9106C37.7607 22.95 37.689 22.9927 37.6078 23.0342C37.4521 23.1139 37.3038 23.2007 37.1526 23.2872C37.1129 23.3099 37.0811 23.3308 37.0413 23.353C37.0189 23.3654 37.0094 23.373 36.9884 23.3858L36.311 23.8461C36.3008 23.8533 36.3067 23.8488 36.298 23.856C36.1934 23.9429 36.0856 24.0242 35.9853 24.1156C35.974 24.1259 35.9713 24.1258 35.9599 24.136L35.4774 24.6335C35.4691 24.6445 35.4672 24.6453 35.4586 24.6548L35.2491 24.9206C35.2485 24.9216 35.2475 24.9231 35.2469 24.9241C35.2462 24.9251 35.2453 24.9266 35.2446 24.9276L34.9279 25.4216C34.9151 25.4433 34.9077 25.4604 34.8954 25.4811C34.8836 25.5007 34.8762 25.5157 34.8648 25.5367L34.7472 25.7758C34.7395 25.7915 34.7386 25.7899 34.7314 25.806L34.664 25.9633C34.6072 26.0865 34.5628 26.2145 34.5204 26.3436C34.3882 26.7463 34.3179 27.0898 34.2595 27.5198C34.2307 27.7319 34.2162 27.9839 34.2167 28.1947C34.2168 28.2626 34.2087 28.2986 34.2158 28.3637C34.2211 28.4118 34.2169 28.4913 34.2166 28.5426C34.2164 28.5798 34.2216 28.5926 34.2225 28.6235C34.2234 28.6544 34.2203 28.6838 34.2247 28.7139L34.2511 29.0463C34.2622 29.1852 34.3 29.4606 34.3274 29.588C34.3643 29.7591 34.3942 29.9399 34.4375 30.1075C34.4518 30.1627 34.461 30.216 34.4804 30.2719C34.4859 30.288 34.4863 30.2906 34.491 30.3078C34.4983 30.3341 34.5046 30.3555 34.5112 30.3799C34.5372 30.4751 34.5669 30.5652 34.5969 30.6574L34.6823 30.9293C34.7193 31.0662 34.7735 31.2013 34.8102 31.3375C34.8246 31.3908 34.8728 31.5725 34.895 31.6101C34.9147 31.6433 34.9542 31.684 35.004 31.684Z" fill="url(#paint2_linear_282_2602)"/>
<path fill-rule="evenodd" clip-rule="evenodd" d="M35.1911 22.0104C35.1777 22.0692 35.051 22.2646 35.0155 22.3349C34.9409 22.4827 34.8598 22.6245 34.787 22.7735C34.6277 23.0996 34.5129 23.3646 34.377 23.7103C34.2064 24.1443 34.0568 24.718 33.9919 25.1768C33.9846 25.2288 33.9787 25.2731 33.9728 25.3253C33.9675 25.3719 33.9577 25.4341 33.9563 25.4823C33.9533 25.5798 33.9393 25.6848 33.9393 25.801C33.9393 25.8837 33.9248 26.0764 33.9506 26.1314C33.9932 26.1314 33.9874 26.1188 34.0025 26.0802L34.0885 25.8552C34.0996 25.8298 34.1108 25.8054 34.1197 25.7828C34.1576 25.6875 34.21 25.5963 34.2546 25.5035C34.3316 25.343 34.4728 25.1237 34.5721 24.9879L34.7938 24.6932C34.8248 24.6542 34.8571 24.6208 34.8876 24.5805L34.9348 24.5245C34.9439 24.514 34.9512 24.5088 34.9602 24.4983C34.9709 24.486 34.9715 24.4818 34.9829 24.4693C35.0001 24.4502 35.0178 24.4366 35.0333 24.4166C35.0709 24.3685 35.1187 24.3301 35.1585 24.2839C35.1691 24.2715 35.1698 24.2673 35.1811 24.2548L35.9421 23.5671C36.0588 23.4738 36.1786 23.3886 36.2981 23.2996C36.3976 23.2254 36.5019 23.16 36.6061 23.0931L37.5928 22.532C37.6382 22.5088 37.6837 22.4884 37.7307 22.4644L38.4328 22.1337C38.4817 22.1121 38.5249 22.0915 38.5743 22.0699L39.0049 21.8845C39.233 21.7923 39.0924 21.6352 39.0033 21.5061C38.9469 21.4242 38.8912 21.3453 38.8317 21.2643C38.7304 21.1261 38.6284 20.9856 38.5174 20.8556L38.2321 20.5158C38.1596 20.423 38.0599 20.3311 37.9902 20.2417C37.9455 20.1843 37.7294 19.977 37.6867 19.9204L37.4781 19.7107C37.4598 19.692 37.4456 19.677 37.4273 19.6585L37.3224 19.5571C37.3032 19.5373 37.2884 19.5285 37.2685 19.5079L36.9484 19.2094C36.9385 19.2 36.9334 19.1927 36.9228 19.1836L36.731 19.0146C36.7201 19.0056 36.7152 18.9987 36.7043 18.9897C36.6916 18.9793 36.6892 18.9783 36.6766 18.9659C36.6641 18.9537 36.6609 18.9532 36.6486 18.9425C36.6357 18.9314 36.6317 18.9256 36.6185 18.9152L36.4525 18.7721C36.1924 18.5481 35.9261 18.3324 35.6532 18.1236C35.6315 18.1071 35.6162 18.0953 35.5949 18.0789L34.3437 17.1625C34.2561 17.103 34.1031 16.9608 33.9922 17.0103C33.9014 17.0507 33.9166 17.2228 33.9166 17.3561C33.9166 18.1721 33.5112 19.2527 33.2109 19.9842C33.1292 20.1832 33.0536 20.3754 32.9687 20.5709C32.9258 20.6698 32.8886 20.7656 32.8459 20.8626L32.4703 21.7418C32.4478 21.7909 32.4292 21.8369 32.4083 21.887L32.2231 22.3293C32.118 22.5728 32.0249 22.8244 31.9284 23.0711C31.8494 23.2728 31.7811 23.4789 31.7042 23.6821C31.6588 23.802 31.621 23.9279 31.583 24.0499C31.5825 24.0513 31.5821 24.0528 31.5816 24.0542L31.5014 24.3092C31.4833 24.3642 31.4723 24.4147 31.4547 24.4701C31.4374 24.5243 31.4249 24.5772 31.4096 24.6327C31.3934 24.6916 31.3823 24.7436 31.3656 24.8021C31.3344 24.9114 31.3107 25.0279 31.2878 25.1398C31.2331 25.4079 31.1601 25.8153 31.1467 26.0908C31.1458 26.1079 31.1477 26.1249 31.1459 26.1422C31.1423 26.1747 31.1437 26.2098 31.1407 26.247C31.1072 26.662 31.1628 27.1685 31.2519 27.5829C31.2648 27.643 31.2757 27.6994 31.292 27.7564C31.4121 28.177 31.4911 28.4156 31.6848 28.8151C31.6968 28.8398 31.7078 28.856 31.7207 28.8826L31.7757 28.9887C31.8809 29.1749 31.993 29.3546 32.1107 29.5327C32.1254 29.5548 32.139 29.5706 32.1538 29.5929C32.1816 29.6347 32.2112 29.6723 32.2407 29.7126C32.3063 29.8024 32.3753 29.892 32.4482 29.9756C32.4587 29.9877 32.4626 29.9905 32.4722 30.0032C32.4818 30.0161 32.4847 30.0186 32.4963 30.0307L32.8162 30.3815L33.1901 30.7292C33.393 30.9223 33.8378 31.2429 34.0819 31.3932L34.2129 31.4736C34.375 31.5728 34.404 31.5181 34.3478 31.3472L34.1481 30.7169C34.1136 30.6116 34.0855 30.4988 34.0533 30.3908C33.9938 30.1917 33.8685 30.0274 33.7647 29.8514C33.7383 29.8066 33.7154 29.7654 33.6889 29.7203C33.6372 29.6322 33.5916 29.5411 33.5465 29.4487L33.4445 29.2343C33.4327 29.2105 33.4226 29.1855 33.4126 29.1627C33.2562 28.8071 33.1443 28.4328 33.0683 28.0485C33.0445 27.9279 33.031 27.8162 33.0135 27.6873L32.9874 27.401C32.9872 27.384 32.9885 27.3653 32.9877 27.3486C32.9863 27.3231 32.9826 27.3243 32.9818 27.2966C32.9662 26.7627 33.0264 26.2918 33.1485 25.7918C33.2029 25.5691 33.2692 25.3653 33.3423 25.1496L33.4576 24.8503C33.4993 24.754 33.5366 24.6556 33.5825 24.5607L33.7145 24.2785C33.7823 24.1398 33.8604 24.0059 33.9317 23.869C34.0248 23.6904 34.1338 23.5193 34.2384 23.3481C34.2519 23.3259 34.2656 23.3065 34.2792 23.2856L34.8286 22.4798C34.8555 22.4431 35.1364 22.0479 35.1911 22.0104Z" fill="url(#paint3_linear_282_2602)"/>
<defs>
<linearGradient id="paint0_linear_282_2602" x1="11.7528" y1="24.0619" x2="30.7777" y2="43.6026" gradientUnits="userSpaceOnUse">
<stop stop-color="#064894"/>
<stop offset="0.239216" stop-color="#6586C2"/>
<stop offset="0.611765" stop-color="#B3BEE1"/>
<stop offset="1" stop-color="#FEFEFE"/>
</linearGradient>
<linearGradient id="paint1_linear_282_2602" x1="31.4492" y1="36.0677" x2="54.0447" y2="32.1537" gradientUnits="userSpaceOnUse">
<stop stop-color="#064894"/>
<stop offset="0.239216" stop-color="#6586C2"/>
<stop offset="1" stop-color="#FEFEFE"/>
</linearGradient>
<linearGradient id="paint2_linear_282_2602" x1="34.985" y1="33.2593" x2="48.4538" y2="22.0386" gradientUnits="userSpaceOnUse">
<stop stop-color="#FBFBFB"/>
<stop offset="1" stop-color="#295FA6"/>
</linearGradient>
<linearGradient id="paint3_linear_282_2602" x1="33.9265" y1="21.6572" x2="39.1741" y2="24.1662" gradientUnits="userSpaceOnUse">
<stop stop-color="#F5ACA9"/>
<stop offset="1" stop-color="#B30000"/>
</linearGradient>
</defs>
</svg>
