<svg width="20" height="21" viewBox="0 0 20 21" fill="none" xmlns="http://www.w3.org/2000/svg">
<path fill-rule="evenodd" clip-rule="evenodd" d="M0.000488281 4.42899C0.000488281 3.24552 0.959878 2.28613 2.14335 2.28613H17.8576C19.0411 2.28613 20.0005 3.24552 20.0005 4.42899V4.91739L10.5481 11.2201C10.4148 11.3058 10.2213 11.367 10.0004 11.367C9.77948 11.367 9.58597 11.3058 9.45266 11.2201L0.000488281 4.91754V4.42899ZM0.000488281 7.06382V16.5718C0.000488281 17.7553 0.959878 18.7147 2.14335 18.7147H17.8576C19.0411 18.7147 20.0005 17.7553 20.0005 16.5718V7.06367L11.5338 12.7091L11.5256 12.7146L11.5256 12.7146C11.0761 13.0071 10.5363 13.1527 10.0004 13.1527C9.46446 13.1527 8.9247 13.0071 8.47519 12.7146L8.46691 12.7092L8.46694 12.7091L0.000488281 7.06382Z" fill="#006ADC"/>
</svg>
