<svg width="69" height="36" viewBox="0 0 69 36" fill="none" xmlns="http://www.w3.org/2000/svg">
<rect x="0.5" y="0.5" width="68" height="35" rx="3.5" stroke="#E0E5EA"/>
<path fill-rule="evenodd" clip-rule="evenodd" d="M17 14.0066C18.0722 14.0066 19.1443 14.0066 20.2165 14.0066C20.4704 14.0046 20.7208 14.0602 20.9453 14.1685C21.1697 14.2768 21.3611 14.4343 21.5023 14.6268C21.759 14.9585 21.8566 15.3604 21.9829 15.7427C22.3701 16.9354 22.7532 18.1299 23.1414 19.3226C23.1485 19.4304 23.3231 19.4716 23.357 19.3563C23.7545 18.1524 24.1375 16.9447 24.5319 15.7398C24.6674 15.3154 24.7835 14.8648 25.0988 14.5153C25.3048 14.2898 25.5826 14.1284 25.8937 14.0534C26.1555 13.9869 26.4308 14.0122 26.6998 14.0075C27.6416 14.0075 28.5833 14 29.524 14.0131C29.5179 17.0112 29.524 20.0094 29.524 23C28.5053 22.9934 27.4865 23.0075 26.4688 22.9925C26.4688 21.2349 26.4688 19.4781 26.4688 17.7205C26.4626 17.564 26.1792 17.5771 26.1607 17.7205C25.5548 19.4753 24.9437 21.2302 24.347 22.9878C23.6281 23.0028 22.9093 22.9878 22.1904 22.9934C21.5844 21.2386 20.9837 19.4819 20.3726 17.728C20.3469 17.5828 20.16 17.5781 20.0584 17.6624C20.0584 19.4425 20.0584 21.2142 20.0584 22.9897C19.0416 23.0009 18.0249 22.9897 17.0082 22.9953V14.0009L17 14.0066ZM30.9156 14.0122C31.9313 13.9972 32.948 14.0187 33.9647 14C33.9811 15.7801 33.9647 17.5603 33.9719 19.3404C34.0582 19.4116 34.2184 19.4341 34.2718 19.3161C34.9482 18.0181 35.6233 16.7217 36.297 15.4269C36.5116 15.0259 36.6852 14.5893 37.0354 14.2651C37.1915 14.1302 37.3856 13.9991 37.6125 14.0084C38.6488 14.0084 39.685 14.0028 40.7212 14.0084C40.7212 17.0016 40.7212 19.9956 40.7212 22.9906C39.7045 22.9981 38.6875 22.9981 37.6701 22.9906C37.6701 21.2171 37.6701 19.4425 37.6701 17.669C37.6701 17.5162 37.3856 17.5284 37.3558 17.669C36.7191 18.9525 36.0827 20.2364 35.4466 21.5206C35.2505 21.9094 35.0646 22.3114 34.7719 22.6505C34.6086 22.8379 34.3714 23.0094 34.0941 22.9981C33.0353 22.9981 31.9765 22.9981 30.9177 22.9981C30.9177 20 30.9177 17.0047 30.9177 14.0122H30.9156ZM42.2124 18.1159C45.4053 18.0962 48.6002 18.1159 51.7941 18.1056C51.6863 18.5075 51.4018 18.8551 51.1009 19.154C50.8027 19.4478 50.4436 19.6848 50.0443 19.851C49.645 20.0173 49.2135 20.1097 48.7748 20.1227C47.6082 20.1284 46.4405 20.1227 45.2738 20.1227C45.2666 21.0812 45.2738 22.0387 45.2738 22.9972C44.2561 22.9972 43.2384 22.9972 42.2206 22.9972C42.2124 21.3698 42.2186 19.7423 42.2124 18.1159Z" fill="#3DA536"/>
<path fill-rule="evenodd" clip-rule="evenodd" d="M41.8203 14.0112C44.2063 14.0112 46.5924 14.0112 48.9784 14.0112C49.6079 14.0598 50.208 14.2754 50.7047 14.6315C51.0659 14.8878 51.3661 15.2084 51.5871 15.5738C51.8082 15.9393 51.9454 16.342 51.9905 16.7573C52.0116 17.0569 51.9992 17.3576 51.9535 17.6549C50.4911 17.6624 49.0297 17.6549 47.5673 17.6549C47.0651 17.6549 46.5609 17.6736 46.0628 17.6062C44.9403 17.4788 43.8332 17.0525 43.0342 16.3039C42.3709 15.678 41.9453 14.8743 41.8203 14.0112Z" fill="#008CD2"/>
</svg>
