<svg width="16" height="16" viewBox="0 0 16 16" fill="none" xmlns="http://www.w3.org/2000/svg">
<path fill-rule="evenodd" clip-rule="evenodd" d="M6.46464 1.36614C6.70183 0.695064 7.34179 0.212555 8.09628 0.212555H8.79996C9.74102 0.212555 10.5039 0.975427 10.5039 1.91648C10.5039 2.59344 10.1031 3.2062 9.48293 3.47754L7.97535 4.1371C7.91008 4.16566 7.85854 4.21557 7.82746 4.27653H9.7896C10.1841 4.27653 10.5039 4.59632 10.5039 4.99081C10.5039 5.3853 10.1841 5.7051 9.7896 5.7051H7.08029C6.6858 5.7051 6.366 5.3853 6.366 4.99081V4.41352C6.366 3.72608 6.77295 3.10384 7.40275 2.82831L8.91033 2.16874C9.01056 2.12489 9.07532 2.02587 9.07532 1.91648C9.07532 1.76441 8.95204 1.64113 8.79996 1.64113H8.09628C7.96603 1.64113 7.85331 1.72406 7.81156 1.8422C7.68009 2.21414 7.27201 2.40909 6.90007 2.27763C6.52813 2.14616 6.33318 1.73808 6.46464 1.36614ZM13.4398 0.536034C13.6196 0.330468 13.8795 0.212555 14.1526 0.212555C14.6758 0.212555 15.0999 0.636649 15.0999 1.1598V3.26147C15.4772 3.2807 15.7772 3.59273 15.7772 3.97482C15.7772 4.35691 15.4772 4.66893 15.0999 4.68817V4.9908C15.0999 5.38529 14.7801 5.70509 14.3856 5.70509C13.9911 5.70509 13.6713 5.38529 13.6713 4.9908V4.68911H11.9224C11.392 4.68911 10.962 4.2591 10.962 3.72865C10.962 3.49601 11.0464 3.27127 11.1996 3.09619L13.4398 0.536034ZM13.6713 3.26053V2.44083L12.9541 3.26053H13.6713ZM10.1879 15.7699C9.48727 15.8448 8.78208 15.6776 8.18963 15.2961C5.23102 13.3032 2.68532 10.7575 0.692483 7.79894C0.318149 7.20025 0.160461 6.49128 0.245736 5.79037C0.331011 5.08945 0.65409 4.43898 1.16105 3.94751L1.59534 3.51322C1.79005 3.3206 2.05288 3.21255 2.32677 3.21255C2.60066 3.21255 2.86349 3.3206 3.0582 3.51322L4.8182 5.34179C5.01012 5.53456 5.11787 5.7955 5.11787 6.06751C5.11787 6.33952 5.01012 6.60046 4.8182 6.79322C4.62557 6.98793 4.51753 7.25076 4.51753 7.52465C4.51753 7.79854 4.62557 8.06137 4.8182 8.25608L7.73248 11.1704C7.92719 11.363 8.19002 11.471 8.46391 11.471C8.7378 11.471 9.00063 11.363 9.19534 11.1704C9.3881 10.9784 9.64904 10.8707 9.92105 10.8707C10.1931 10.8707 10.454 10.9784 10.6468 11.1704L12.4753 12.9875C12.668 13.1822 12.776 13.445 12.776 13.7189C12.776 13.9928 12.668 14.2557 12.4753 14.4504L12.0411 14.8847C11.5425 15.3827 10.8886 15.6951 10.1879 15.7699Z" fill="white"/>
</svg>
