<svg width="18" height="19" viewBox="0 0 18 19" fill="none" xmlns="http://www.w3.org/2000/svg">
<path d="M6.64648 17.5238C5.82291 18.0551 4.84151 18.2866 3.8673 18.1795C2.89309 18.0723 1.98548 17.633 1.29709 16.9353L0.695288 16.3469C0.43145 16.077 0.283724 15.7146 0.283724 15.3372C0.283724 14.9598 0.43145 14.5974 0.695288 14.3275L3.24962 11.7999C3.51723 11.5369 3.87742 11.3896 4.25263 11.3896C4.62784 11.3896 4.98803 11.5369 5.25564 11.7999C5.52551 12.0638 5.88792 12.2115 6.26533 12.2115C6.64275 12.2115 7.00516 12.0638 7.27503 11.7999L11.2871 7.78789C11.4209 7.65599 11.5272 7.49881 11.5997 7.32547C11.6723 7.15213 11.7096 6.9661 11.7096 6.77819C11.7096 6.59028 11.6723 6.40425 11.5997 6.23091C11.5272 6.05757 11.4209 5.90039 11.2871 5.76849C11.0241 5.50089 10.8767 5.14069 10.8767 4.76548C10.8767 4.39028 11.0241 4.03008 11.2871 3.76247L13.828 1.22152C14.0979 0.957678 14.4603 0.809952 14.8377 0.809952C15.2151 0.809952 15.5776 0.957678 15.8474 1.22152L16.4359 1.82332C17.1335 2.51171 17.5728 3.41931 17.68 4.39352C17.7871 5.36773 17.5556 6.34913 17.0243 7.17271C14.2559 11.2526 10.7335 14.7659 6.64648 17.5238Z" fill="#006ADC"/>
</svg>
