<svg width="52" height="52" viewBox="0 0 52 52" fill="none" xmlns="http://www.w3.org/2000/svg">
<rect width="52" height="52" rx="26" fill="#006ADC"/>
<path fill-rule="evenodd" clip-rule="evenodd" d="M32.8876 16.1393C33.2994 15.989 33.7455 15.9587 34.174 16.0522C34.6067 16.1466 35.0033 16.3633 35.3165 16.6765C35.6297 16.9897 35.8463 17.3862 35.9408 17.819C36.0342 18.2474 36.0039 18.6935 35.8536 19.1053L30.7479 34.4081L30.7474 34.4096C30.623 34.7858 30.404 35.1238 30.1115 35.391C29.8196 35.6576 29.4644 35.845 29.0796 35.9352C28.6947 36.0291 28.2919 36.0212 27.9109 35.9123C27.5303 35.8036 27.1845 35.5978 26.9074 35.3152L24.1684 32.5888L21.2912 34.0766C21.0668 34.1926 20.7978 34.1815 20.5838 34.0474C20.3698 33.9132 20.2425 33.6761 20.249 33.4236L20.367 28.8758L30.432 21.5647C30.831 21.2749 30.9195 20.7165 30.6297 20.3175C30.3399 19.9186 29.7815 19.8301 29.3825 20.1199L19.1471 27.5549L16.6758 25.0836C16.408 24.8161 16.2109 24.4863 16.1022 24.1238C15.9943 23.7641 15.9767 23.3832 16.0511 23.0151C16.1255 22.613 16.3053 22.2377 16.5721 21.9276C16.8408 21.6154 17.188 21.3806 17.5777 21.2474L17.5826 21.2458L17.5826 21.2458L32.8876 16.1393Z" fill="white"/>
</svg>
