<svg width="16" height="16" viewBox="0 0 16 16" fill="none" xmlns="http://www.w3.org/2000/svg">
<path fill-rule="evenodd" clip-rule="evenodd" d="M5.35402 2.7685C5.35402 1.30722 6.53862 0.122615 7.99991 0.122615C9.46119 0.122615 10.6458 1.30722 10.6458 2.7685C10.6458 4.22978 9.46119 5.41439 7.99991 5.41439C6.53862 5.41439 5.35402 4.22978 5.35402 2.7685ZM2.79579 7.10221C3.3343 6.59111 4.04842 6.30617 4.79085 6.30617C5.53329 6.30617 6.24741 6.59111 6.78592 7.10221L6.79661 7.11262L7.61503 7.93104H6.80691L6.80702 7.93115H7.61514L7.99986 8.31587L8.38458 7.93115H9.1927L9.19281 7.93104H8.38469L9.20311 7.11262L9.2138 7.10221C9.7523 6.59111 10.4664 6.30617 11.2089 6.30617C11.9513 6.30617 12.6654 6.59111 13.2039 7.10221L13.204 7.10232C13.4715 7.35627 13.6844 7.66197 13.8299 8.00084C13.9754 8.3397 14.0505 8.70463 14.0505 9.07341C14.0505 9.44219 13.9754 9.80712 13.8299 10.146C13.6849 10.4838 13.4728 10.7886 13.2066 11.0421L8.39813 15.7157C8.17636 15.9313 7.82335 15.9313 7.60158 15.7157L2.79312 11.0421C2.5269 10.7886 2.31484 10.4838 2.16979 10.146C2.02428 9.80712 1.94924 9.44219 1.94924 9.07341C1.94924 8.70463 2.02428 8.3397 2.16979 8.00084C2.31531 7.66197 2.52825 7.35627 2.79567 7.10232L2.79579 7.10221ZM8.38469 7.93104L8.38458 7.93115H7.61514L7.61503 7.93104H8.38469Z" fill="#D94C42"/>
</svg>
