<svg width="14" height="14" viewBox="0 0 14 14" fill="none" xmlns="http://www.w3.org/2000/svg">
<path fill-rule="evenodd" clip-rule="evenodd" d="M5.04722 0.756836C5.04722 0.480693 5.27107 0.256836 5.54722 0.256836H8.45264C8.72878 0.256836 8.95264 0.480694 8.95264 0.756836V3.61784L11.4303 2.18734C11.6695 2.04927 11.9753 2.13121 12.1133 2.37035L13.5661 4.88652C13.7041 5.12567 13.6222 5.43146 13.383 5.56953L10.9053 7.00004L13.383 8.43053C13.6222 8.5686 13.7041 8.8744 13.566 9.11355L12.1133 11.6297C11.9753 11.8689 11.6695 11.9508 11.4303 11.8127L8.95264 10.3822V13.2432C8.95264 13.5194 8.72878 13.7432 8.45264 13.7432H5.54722C5.27107 13.7432 5.04722 13.5194 5.04722 13.2432V10.3822L2.56952 11.8127C2.33037 11.9508 2.02457 11.8689 1.8865 11.6297L0.433793 9.11355C0.295722 8.8744 0.377659 8.5686 0.616805 8.43053L3.09449 7.00004L0.616783 5.56953C0.377636 5.43146 0.295699 5.12567 0.43377 4.88652L1.88648 2.37035C2.02455 2.13121 2.33035 2.04927 2.56949 2.18734L5.04722 3.61785V0.756836Z" fill="white"/>
</svg>
