<svg width="24" height="20" viewBox="0 0 24 20" fill="none" xmlns="http://www.w3.org/2000/svg">
<path fill-rule="evenodd" clip-rule="evenodd" d="M17.0458 10.3267H23.6548V13.8949C23.6548 15.3151 22.5035 16.4663 21.0834 16.4663H20.7976C20.7987 16.5009 20.7993 16.5356 20.7993 16.5704C20.7993 18.3655 19.3441 19.8206 17.549 19.8206C15.8265 19.8206 14.417 18.4807 14.3059 16.7862H9.93089C9.81982 18.4807 8.41025 19.8206 6.68772 19.8206C4.96519 19.8206 3.55562 18.4807 3.44455 16.7862H2.92104C1.50088 16.7862 0.349609 15.6349 0.349609 14.2148V2.85659C0.349609 1.43643 1.50088 0.285156 2.92104 0.285156H13.9891C14.7885 0.285156 15.5027 0.649935 15.9743 1.22212V9.25527C15.9743 9.847 16.454 10.3267 17.0458 10.3267ZM18.1172 8.18384V2.04419H18.8703C19.8529 2.04419 20.7496 2.60417 21.1809 3.4871L23.4748 8.18384H18.1172ZM8.45424 4.14233C9.04597 4.14233 9.52567 4.62203 9.52567 5.21376V6.92805H11.2405C11.8322 6.92805 12.3119 7.40774 12.3119 7.99948C12.3119 8.59121 11.8322 9.07091 11.2405 9.07091H9.52567V10.7852C9.52567 11.3769 9.04597 11.8566 8.45424 11.8566C7.86251 11.8566 7.38281 11.3769 7.38281 10.7852V9.07091H5.66908C5.07735 9.07091 4.59766 8.59121 4.59766 7.99948C4.59766 7.40774 5.07735 6.92805 5.66908 6.92805H7.38281V5.21376C7.38281 4.62203 7.86251 4.14233 8.45424 4.14233Z" fill="#006ADC"/>
</svg>
