<svg width="20" height="21" viewBox="0 0 20 21" fill="none" xmlns="http://www.w3.org/2000/svg">
<g clip-path="url(#clip0_276_3656)">
<path fill-rule="evenodd" clip-rule="evenodd" d="M6.75464 2.62714C6.8958 2.34482 7.18436 2.16648 7.5 2.16648H12.5C12.8156 2.16648 13.1042 2.34482 13.2454 2.62714L14.6817 5.49982L15.0013 5.49982L16.6667 5.49982C17.1269 5.49982 17.5 5.87291 17.5 6.33315C17.5 6.79339 17.1269 7.16648 16.6667 7.16648H15.8346V16.3331C15.8346 17.7139 14.7153 18.8331 13.3346 18.8331H6.66797C5.28726 18.8331 4.16797 17.7139 4.16797 16.3331V7.16648H3.33333C2.8731 7.16648 2.5 6.79339 2.5 6.33315C2.5 5.87291 2.8731 5.49982 3.33333 5.49982L5.0013 5.49982L5.31831 5.49982L6.75464 2.62714ZM11.985 3.83315L12.8183 5.49982H7.18169L8.01503 3.83315H11.985ZM9.16732 9.66648C9.16732 9.20625 8.79422 8.83315 8.33398 8.83315C7.87375 8.83315 7.50065 9.20625 7.50065 9.66648V14.6665C7.50065 15.1267 7.87375 15.4998 8.33398 15.4998C8.79422 15.4998 9.16732 15.1267 9.16732 14.6665V9.66648ZM12.5007 9.66648C12.5007 9.20625 12.1276 8.83315 11.6673 8.83315C11.2071 8.83315 10.834 9.20625 10.834 9.66648V14.6665C10.834 15.1267 11.2071 15.4998 11.6673 15.4998C12.1276 15.4998 12.5007 15.1267 12.5007 14.6665V9.66648Z" fill="#D94C42"/>
</g>
<defs>
<clipPath id="clip0_276_3656">
<rect width="20" height="20" fill="white" transform="translate(0 0.5)"/>
</clipPath>
</defs>
</svg>
