<svg width="18" height="19" viewBox="0 0 18 19" fill="none" xmlns="http://www.w3.org/2000/svg">
<path fill-rule="evenodd" clip-rule="evenodd" d="M3.77062 4.9884C5.21473 3.94798 7.01434 3.07141 9 3.07141C10.9857 3.07141 12.7853 3.94798 14.2294 4.9884C15.6787 6.03259 16.8261 7.28208 17.5207 8.12156L17.5265 8.12867C17.8367 8.51464 18 9.00375 18 9.50006C18 9.99636 17.8367 10.4855 17.5265 10.8715L17.5207 10.8786C16.8261 11.718 15.6787 12.9675 14.2294 14.0117C12.7853 15.0521 10.9857 15.9287 9 15.9287C7.01434 15.9287 5.21473 15.0521 3.77062 14.0117C2.32128 12.9675 1.17389 11.718 0.479301 10.8786L0.473503 10.8715C0.163318 10.4855 0 9.99636 0 9.50006C0 9.00375 0.163318 8.51464 0.473503 8.12867L0.479301 8.12156C1.17389 7.28208 2.32128 6.03259 3.77062 4.9884ZM9 12.3928C10.5977 12.3928 11.8929 11.0977 11.8929 9.49998C11.8929 7.9023 10.5977 6.60713 9 6.60713C7.40232 6.60713 6.10714 7.9023 6.10714 9.49998C6.10714 11.0977 7.40232 12.3928 9 12.3928Z" fill="#636A70"/>
</svg>
